<?xml version="1.0" encoding="utf-8"?>
<!-- Generator: Adobe Illustrator 25.0.1, SVG Export Plug-In . SVG Version: 6.00 Build 0)  -->
<svg version="1.1" id="Layer_1" xmlns="http://www.w3.org/2000/svg" xmlns:xlink="http://www.w3.org/1999/xlink" x="0px" y="0px"
	 viewBox="0 0 533.4 514" style="enable-background:new 0 0 533.4 514;" xml:space="preserve">
<style type="text/css">
	.st0{fill:#C4C4C4;filter:url(#Adobe_OpacityMaskFilter);}
	.st1{mask:url(#mask0_1_);}
	.st2{fill-rule:evenodd;clip-rule:evenodd;fill:url(#SVGID_1_);}
	.st3{fill:url(#SVGID_2_);}
	.st4{fill:url(#SVGID_3_);}
	.st5{fill:url(#SVGID_4_);}
	.st6{fill:url(#SVGID_5_);}
	.st7{fill:url(#SVGID_6_);}
	.st8{fill:url(#SVGID_7_);}
	.st9{fill:url(#SVGID_8_);}
	.st10{fill:#DEEAFC;}
	.st11{fill:#4782FF;}
	.st12{fill-rule:evenodd;clip-rule:evenodd;fill:#DEEAFC;}
	.st13{fill-rule:evenodd;clip-rule:evenodd;fill:#3065E4;}
	.st14{fill:#FFB62B;}
	.st15{fill:none;stroke:#FFFFFF;}
	.st16{fill-rule:evenodd;clip-rule:evenodd;fill:url(#SVGID_9_);}
	.st17{fill:url(#SVGID_10_);}
	.st18{fill:url(#SVGID_11_);}
	.st19{fill:url(#SVGID_12_);}
	.st20{fill:url(#SVGID_13_);}
	.st21{fill:url(#SVGID_14_);}
	.st22{fill:url(#SVGID_15_);}
	.st23{fill-rule:evenodd;clip-rule:evenodd;fill:url(#SVGID_16_);}
	.st24{fill:url(#SVGID_17_);}
	.st25{fill:url(#SVGID_18_);}
	.st26{fill:url(#SVGID_19_);}
	.st27{fill:url(#SVGID_20_);}
	.st28{fill:url(#SVGID_21_);}
	.st29{fill:url(#SVGID_22_);}
	.st30{fill:url(#SVGID_23_);}
	.st31{fill:#DEEAFC;filter:url(#Adobe_OpacityMaskFilter_1_);}
	.st32{mask:url(#mask1_1_);}
	.st33{fill-rule:evenodd;clip-rule:evenodd;fill:#2550F6;}
	.st34{fill:#2550F6;}
	.st35{fill-rule:evenodd;clip-rule:evenodd;fill:url(#SVGID_24_);}
	.st36{fill:url(#SVGID_25_);}
	.st37{fill:url(#SVGID_26_);}
	.st38{fill:url(#SVGID_27_);}
	.st39{fill:#B5CAF1;}
	.st40{fill:#D2E2FF;}
	.st41{fill:url(#SVGID_28_);fill-opacity:0.3;}
	.st42{opacity:0.3;}
	.st43{fill:#486EB5;}
	.st44{fill:#B4C9F1;fill-opacity:1.000000e-02;}
	.st45{opacity:0.4;}
	.st46{fill:none;stroke:#3878FF;stroke-width:2;stroke-linecap:round;}
	.st47{fill:url(#SVGID_29_);}
	.st48{fill:url(#SVGID_30_);fill-opacity:0.2;}
	.st49{fill:#E8F4FF;}
	.st50{fill:url(#SVGID_31_);fill-opacity:0.3;}
	.st51{opacity:0.5;}
	.st52{fill:url(#SVGID_32_);}
	.st53{fill:#96B2E4;fill-opacity:1.000000e-02;}
	.st54{fill:url(#SVGID_33_);}
	.st55{fill:url(#SVGID_34_);fill-opacity:0.3;}
	.st56{fill:#89A9E3;}
	.st57{fill-opacity:1.000000e-02;}
	.st58{fill:#B5CAF1;fill-opacity:0.3;}
	.st59{fill:#3878FF;}
	.st60{fill:url(#SVGID_35_);fill-opacity:0.1;}
	.st61{fill:url(#SVGID_36_);fill-opacity:0.2;}
	.st62{fill:url(#SVGID_37_);fill-opacity:0.2;}
	.st63{fill:url(#SVGID_38_);fill-opacity:0.3;}
	.st64{fill:none;}
	.st65{fill:url(#SVGID_39_);fill-opacity:0.1;}
	.st66{fill-rule:evenodd;clip-rule:evenodd;fill:#D2E2FF;}
	.st67{fill-rule:evenodd;clip-rule:evenodd;fill:url(#SVGID_40_);fill-opacity:0.1;}
	.st68{fill:url(#SVGID_41_);}
	.st69{fill:url(#SVGID_42_);}
	.st70{opacity:0.9;}
	.st71{fill:url(#SVGID_43_);filter:url(#Adobe_OpacityMaskFilter_2_);}
	.st72{mask:url(#mask2_1_);}
	.st73{fill:#89C6FF;}
	.st74{fill:#89A9E3;fill-opacity:1.000000e-02;}
	.st75{opacity:0.2;}
	.st76{opacity:0.3;fill:#486EB5;enable-background:new    ;}
	.st77{fill:none;stroke:#FFFFFF;stroke-width:3;stroke-linecap:round;}
	.st78{fill:none;stroke:#D64F4E;stroke-width:3;stroke-linecap:round;}
	.st79{opacity:0.6;}
	.st80{fill:url(#SVGID_44_);}
	.st81{fill:#3878FF;fill-opacity:0.3;}
	.st82{fill:url(#SVGID_45_);fill-opacity:0.15;}
	.st83{fill:#FFB21E;filter:url(#Adobe_OpacityMaskFilter_3_);}
	.st84{fill:#FFB21E;}
	.st85{mask:url(#mask3_1_);}
	.st86{fill-rule:evenodd;clip-rule:evenodd;fill:#3878FF;fill-opacity:1.000000e-02;}
	.st87{fill:#D64F4E;filter:url(#Adobe_OpacityMaskFilter_4_);}
	.st88{mask:url(#mask4_1_);}
	.st89{fill:none;stroke:#FFFFFF;stroke-width:0.5;stroke-linecap:round;stroke-dasharray:2,2;}
	.st90{fill-rule:evenodd;clip-rule:evenodd;fill:#FFB21E;fill-opacity:1.000000e-02;}
	.st91{fill-rule:evenodd;clip-rule:evenodd;fill:#E6EFFD;}
	.st92{fill-rule:evenodd;clip-rule:evenodd;fill:#D64F4E;}
	.st93{fill-rule:evenodd;clip-rule:evenodd;fill:#DBE8FF;}
	.st94{fill:url(#SVGID_46_);}
	.st95{fill:url(#SVGID_47_);fill-opacity:0.2;}
	.st96{fill:#E0EBFC;}
	.st97{fill:url(#SVGID_48_);fill-opacity:0.3;}
	.st98{fill:#D2E2FF;filter:url(#Adobe_OpacityMaskFilter_5_);}
	.st99{mask:url(#mask5_1_);}
	.st100{fill:#DDE8FB;}
	.st101{fill:#CADBFD;}
	.st102{fill:#9EBFE9;}
	.st103{fill:#9EBFE9;fill-opacity:1.000000e-02;}
	.st104{opacity:0.8;}
	.st105{fill:url(#SVGID_49_);}
	.st106{fill:url(#SVGID_50_);}
	.st107{fill:url(#SVGID_51_);}
	.st108{fill:url(#SVGID_52_);}
	.st109{fill:#93B0E3;}
	.st110{fill:#3666BF;fill-opacity:0.7;}
	.st111{fill:url(#SVGID_53_);}
	.st112{fill:url(#SVGID_54_);}
	.st113{fill:url(#SVGID_55_);fill-opacity:0.3;}
	.st114{fill:url(#SVGID_56_);}
	.st115{fill-rule:evenodd;clip-rule:evenodd;fill:url(#SVGID_57_);}
	.st116{fill:url(#SVGID_58_);}
	.st117{fill:#E7F2FF;}
	.st118{fill:#C7D6F5;}
	.st119{fill:#F1F6FF;}
	.st120{fill-rule:evenodd;clip-rule:evenodd;fill:url(#SVGID_59_);}
	.st121{opacity:0.6;fill:#4B98F8;enable-background:new    ;}
	.st122{opacity:0.8;fill:#4B98F8;enable-background:new    ;}
	.st123{fill:#4B98F8;}
	.st124{fill:#FFB21E;fill-opacity:0.3;}
	.st125{fill:url(#SVGID_60_);fill-opacity:5.000000e-02;}
	.st126{fill:#FFE04D;}
	.st127{fill:#D64F4E;}
	.st128{fill:#778797;}
	.st129{fill:url(#SVGID_61_);}
	.st130{fill:url(#SVGID_62_);}
	.st131{fill:url(#SVGID_63_);}
	.st132{fill:url(#SVGID_64_);}
	.st133{fill:url(#SVGID_65_);fill-opacity:5.000000e-02;}
	.st134{fill:url(#SVGID_66_);}
	.st135{fill:#3E79F6;}
	.st136{fill:#4382F9;}
	.st137{fill:#578DFF;}
	.st138{fill:#91AEE3;}
	.st139{fill:#3C8CEB;}
	.st140{fill:#3479DF;}
	.st141{fill-rule:evenodd;clip-rule:evenodd;fill:#3479DF;}
	.st142{fill:#F0F9FF;}
	.st143{fill:#C5D8F5;}
	.st144{fill:url(#SVGID_67_);}
	.st145{fill-rule:evenodd;clip-rule:evenodd;fill:#C5D8F5;}
	.st146{fill-rule:evenodd;clip-rule:evenodd;fill:url(#SVGID_68_);}
	.st147{fill:#8B9BAB;}
	.st148{fill:url(#SVGID_69_);}
	.st149{fill:url(#SVGID_70_);}
	.st150{fill-rule:evenodd;clip-rule:evenodd;fill:#778797;}
	.st151{fill-rule:evenodd;clip-rule:evenodd;fill:url(#SVGID_71_);}
	.st152{fill:url(#SVGID_72_);}
	.st153{fill:#EA6362;}
	.st154{fill:#B7302F;}
	.st155{fill:url(#SVGID_73_);}
	.st156{fill:url(#SVGID_74_);}
	.st157{fill:#D64F4E;filter:url(#Adobe_OpacityMaskFilter_6_);}
	.st158{mask:url(#mask6_1_);}
	.st159{fill:#953635;}
	.st160{fill:#D64F4E;filter:url(#Adobe_OpacityMaskFilter_7_);}
	.st161{mask:url(#mask7_1_);}
	.st162{fill:url(#SVGID_75_);}
</style>
<defs>
	<filter id="Adobe_OpacityMaskFilter" filterUnits="userSpaceOnUse" x="-671.2" y="0" width="1440" height="695.9">
		<feColorMatrix  type="matrix" values="1 0 0 0 0  0 1 0 0 0  0 0 1 0 0  0 0 0 1 0"/>
	</filter>
</defs>
<mask maskUnits="userSpaceOnUse" x="-671.2" y="0" width="1440" height="695.9" id="mask0_1_">
	<rect x="-671.2" class="st0" width="1440" height="514"/>
</mask>
<g class="st1">
	
		<linearGradient id="SVGID_1_" gradientUnits="userSpaceOnUse" x1="89.469" y1="149.459" x2="213.469" y2="148.459" gradientTransform="matrix(1 0 0 -1 0 516)">
		<stop  offset="0" style="stop-color:#3D78F5"/>
		<stop  offset="0.2066" style="stop-color:#4687FA"/>
		<stop  offset="0.4542" style="stop-color:#3D78F5"/>
	</linearGradient>
	<path class="st2" d="M89.9,393.8v-3.4C89.7,391.5,89.7,392.7,89.9,393.8z M213.8,340.3C213.8,340.3,213.8,340.3,213.8,340.3
		C213.8,340.3,213.8,340.3,213.8,340.3c0,0.1,0,0.1,0,0.1"/>
	
		<linearGradient id="SVGID_2_" gradientUnits="userSpaceOnUse" x1="89.8519" y1="196.9286" x2="213.8519" y2="195.9286" gradientTransform="matrix(1 0 0 -1 0 516)">
		<stop  offset="0" style="stop-color:#3D78F5"/>
		<stop  offset="0.2066" style="stop-color:#4687FA"/>
		<stop  offset="0.4542" style="stop-color:#3D78F5"/>
	</linearGradient>
	<path class="st3" d="M104.8,262.3c-9.1-3-14.2-8.3-14.9-14.5v142.5c0-0.4,0.1-0.7,0.2-1.1c0.8-4.2,3.5-8.6,8.1-12.7l6.7-6V262.3z"
		/>
	
		<linearGradient id="SVGID_3_" gradientUnits="userSpaceOnUse" x1="90.0876" y1="226.156" x2="214.0876" y2="225.156" gradientTransform="matrix(1 0 0 -1 0 516)">
		<stop  offset="0" style="stop-color:#3D78F5"/>
		<stop  offset="0.2066" style="stop-color:#4687FA"/>
		<stop  offset="0.4542" style="stop-color:#3D78F5"/>
	</linearGradient>
	<path class="st4" d="M205.4,210.1L160,250.8c-13.4,12-38.1,17.2-55.2,11.6v108.3l38.8-34.7c13.4-12,38.1-17.2,55.2-11.6
		c2.4,0.8,4.5,1.7,6.4,2.8c0.1,0.1,0.2,0.1,0.3,0.2V210.1z"/>
	
		<linearGradient id="SVGID_4_" gradientUnits="userSpaceOnUse" x1="89.4748" y1="150.1708" x2="213.4748" y2="149.1708" gradientTransform="matrix(1 0 0 -1 0 516)">
		<stop  offset="0" style="stop-color:#3D78F5"/>
		<stop  offset="0.2066" style="stop-color:#4687FA"/>
		<stop  offset="0.4542" style="stop-color:#3D78F5"/>
	</linearGradient>
	<path class="st5" d="M160,396.7l45.5-40.6v-28.7c-0.1-0.1-0.2-0.1-0.3-0.2c-1.8-1.1-4-2-6.4-2.8c-17.1-5.6-41.8-0.4-55.2,11.6
		l-38.8,34.7v37.7C121.9,413.9,146.6,408.7,160,396.7z"/>
	
		<linearGradient id="SVGID_5_" gradientUnits="userSpaceOnUse" x1="90.2749" y1="249.3858" x2="214.2749" y2="248.3858" gradientTransform="matrix(1 0 0 -1 0 516)">
		<stop  offset="0" style="stop-color:#3D78F5"/>
		<stop  offset="0.2066" style="stop-color:#4687FA"/>
		<stop  offset="0.4542" style="stop-color:#3D78F5"/>
	</linearGradient>
	<path class="st6" d="M213.8,194.9c-0.1,4.9-2.8,10.3-8.4,15.2v117.2c0.2,0.2,0.5,0.3,0.7,0.5c4.3,2.9,6.9,6.6,7.5,10.7
		c0.1,0.6,0.1,1.2,0.2,1.8V194.9z"/>
	
		<linearGradient id="SVGID_6_" gradientUnits="userSpaceOnUse" x1="89.6766" y1="175.1991" x2="213.6766" y2="174.1991" gradientTransform="matrix(1 0 0 -1 0 516)">
		<stop  offset="0" style="stop-color:#3D78F5"/>
		<stop  offset="0.2066" style="stop-color:#4687FA"/>
		<stop  offset="0.4542" style="stop-color:#3D78F5"/>
	</linearGradient>
	<path class="st7" d="M205.4,327.4v28.7c5.7-5.1,8.4-10.6,8.4-15.7c0,0,0-0.1,0-0.1c0,0,0,0,0,0c0,0,0,0,0,0c0-0.6-0.1-1.2-0.2-1.8
		c-0.6-4.1-3.2-7.8-7.5-10.7C205.9,327.7,205.7,327.5,205.4,327.4z"/>
	
		<linearGradient id="SVGID_7_" gradientUnits="userSpaceOnUse" x1="89.2852" y1="126.6672" x2="213.2852" y2="125.6672" gradientTransform="matrix(1 0 0 -1 0 516)">
		<stop  offset="0" style="stop-color:#3D78F5"/>
		<stop  offset="0.2066" style="stop-color:#4687FA"/>
		<stop  offset="0.4542" style="stop-color:#3D78F5"/>
	</linearGradient>
	<path class="st8" d="M104.8,408.3v-37.7l-6.7,6c-4.6,4.1-7.3,8.5-8.1,12.7c-0.1,0.4-0.1,0.7-0.2,1.1v3.4
		C90.7,400,95.7,405.4,104.8,408.3z"/>
	<g>
		
			<linearGradient id="SVGID_8_" gradientUnits="userSpaceOnUse" x1="-436.7635" y1="801.2426" x2="-538.6679" y2="837.1187" gradientTransform="matrix(0.7457 -0.6663 -0.9508 -0.3098 1301.4863 145.5426)">
			<stop  offset="0" style="stop-color:#4782FF"/>
			<stop  offset="1" style="stop-color:#5B90FF"/>
		</linearGradient>
		<path class="st9" d="M98.1,230.6l45.5-40.6c13.4-12,38.1-17.2,55.2-11.6l0,0c17.1,5.6,20.1,19.8,6.7,31.7L160,250.8
			c-13.4,12-38.1,17.2-55.2,11.6l0,0C87.7,256.8,84.7,242.6,98.1,230.6z"/>
	</g>
	<g>
		<path class="st10" d="M149.2,191.3L149.2,191.3c11.2-10,31.7-14.3,45.9-9.7l0,0c14.2,4.6,16.7,16.4,5.5,26.4l0,0
			c-11.1,10-31.7,14.3-45.9,9.6l0,0C140.5,213.1,138,201.3,149.2,191.3z"/>
		<path class="st11" d="M149.2,191.3L149.2,191.3c11.2-10,31.7-14.3,45.9-9.7l0,0c14.2,4.6,16.7,16.4,5.5,26.4l0,0
			c-11.1,10-31.7,14.3-45.9,9.6l0,0C140.5,213.1,138,201.3,149.2,191.3z"/>
	</g>
	<path class="st12" d="M149.2,191.3c-5.6,5-7.7,10.4-6.7,15.2c0.7-3.5,2.9-7.1,6.7-10.5c11.1-10,31.7-14.3,45.9-9.6
		c7.1,2.3,11.2,6.4,12.3,11.2c1.4-6.7-2.9-12.9-12.3-15.9C180.9,177,160.4,181.4,149.2,191.3z M207.6,199c0,0.1,0,0.2,0,0.4
		L207.6,199z"/>
	<path class="st13" d="M149.2,191.3c-5.6,5-7.7,10.4-6.7,15.2c0.7-3.5,2.9-7.1,6.7-10.5c11.1-10,31.7-14.3,45.9-9.6
		c7.1,2.3,11.2,6.4,12.3,11.2c1.4-6.7-2.9-12.9-12.3-15.9C180.9,177,160.4,181.4,149.2,191.3z M207.6,199c0,0.1,0,0.2,0,0.4
		L207.6,199z"/>
	
		<ellipse transform="matrix(0.9974 -7.262588e-02 7.262588e-02 0.9974 -14.1058 13.3209)" class="st14" cx="176.1" cy="200.6" rx="12.7" ry="7.1"/>
	<path class="st15" d="M177.2,200.4v-33.1"/>
	<path class="st14" d="M195.1,176.6l-17.5-9.5v14.4L195.1,176.6z"/>
	<g>
		
			<linearGradient id="SVGID_9_" gradientUnits="userSpaceOnUse" x1="105.4064" y1="275.7634" x2="152.2254" y2="275.3854" gradientTransform="matrix(1 0 0 -1 0 516)">
			<stop  offset="0" style="stop-color:#3D78F5"/>
			<stop  offset="0.2066" style="stop-color:#4687FA"/>
			<stop  offset="0.4542" style="stop-color:#3D78F5"/>
		</linearGradient>
		<path class="st16" d="M105.2,250.5v-1.3C105.1,249.7,105.1,250.1,105.2,250.5z M152,230.3C152,230.3,152,230.3,152,230.3
			L152,230.3C152,230.4,152,230.4,152,230.3"/>
		
			<linearGradient id="SVGID_10_" gradientUnits="userSpaceOnUse" x1="105.3589" y1="269.8864" x2="152.1779" y2="269.5084" gradientTransform="matrix(1 0 0 -1 0 516)">
			<stop  offset="0" style="stop-color:#3D78F5"/>
			<stop  offset="0.2066" style="stop-color:#4687FA"/>
			<stop  offset="0.4542" style="stop-color:#3D78F5"/>
		</linearGradient>
		<path class="st17" d="M110.8,250.5c-3.4-1.1-5.3-3.1-5.6-5.5v4.2c0-0.1,0-0.3,0.1-0.4c0.3-1.6,1.3-3.2,3.1-4.8l2.5-2.2V250.5z"/>
		
			<linearGradient id="SVGID_11_" gradientUnits="userSpaceOnUse" x1="105.4306" y1="278.7607" x2="152.2495" y2="278.3827" gradientTransform="matrix(1 0 0 -1 0 516)">
			<stop  offset="0" style="stop-color:#3D78F5"/>
			<stop  offset="0.2066" style="stop-color:#4687FA"/>
			<stop  offset="0.4542" style="stop-color:#3D78F5"/>
		</linearGradient>
		<path class="st18" d="M148.8,230.8l-17.2,15.3c-5.1,4.5-14.4,6.5-20.8,4.4v-8.8l14.6-13.1c5.1-4.5,14.4-6.5,20.8-4.4
			c0.9,0.3,1.7,0.7,2.4,1.1c0,0,0.1,0,0.1,0.1V230.8z"/>
		
			<linearGradient id="SVGID_12_" gradientUnits="userSpaceOnUse" x1="105.4085" y1="276.0318" x2="152.2275" y2="275.6538" gradientTransform="matrix(1 0 0 -1 0 516)">
			<stop  offset="0" style="stop-color:#3D78F5"/>
			<stop  offset="0.2066" style="stop-color:#4687FA"/>
			<stop  offset="0.4542" style="stop-color:#3D78F5"/>
		</linearGradient>
		<path class="st19" d="M131.6,251.6l17.2-15.3v-10.8c0,0-0.1,0-0.1-0.1c-0.7-0.4-1.5-0.8-2.4-1.1c-6.4-2.1-15.8-0.1-20.8,4.4
			l-14.6,13.1V256C117.2,258.1,126.6,256.1,131.6,251.6z"/>
		
			<linearGradient id="SVGID_13_" gradientUnits="userSpaceOnUse" x1="105.5084" y1="288.4023" x2="152.3274" y2="288.0243" gradientTransform="matrix(1 0 0 -1 0 516)">
			<stop  offset="0" style="stop-color:#3D78F5"/>
			<stop  offset="0.2066" style="stop-color:#4687FA"/>
			<stop  offset="0.4542" style="stop-color:#3D78F5"/>
		</linearGradient>
		<path class="st20" d="M152,225.1c0,1.9-1.1,3.9-3.2,5.7v-5.4c0.1,0.1,0.2,0.1,0.3,0.2c1.6,1.1,2.6,2.5,2.8,4
			c0,0.2,0.1,0.4,0.1,0.7V225.1z"/>
		
			<linearGradient id="SVGID_14_" gradientUnits="userSpaceOnUse" x1="105.4848" y1="285.4822" x2="152.3038" y2="285.1042" gradientTransform="matrix(1 0 0 -1 0 516)">
			<stop  offset="0" style="stop-color:#3D78F5"/>
			<stop  offset="0.2066" style="stop-color:#4687FA"/>
			<stop  offset="0.4542" style="stop-color:#3D78F5"/>
		</linearGradient>
		<path class="st21" d="M148.8,225.4v10.8c2.2-1.9,3.2-4,3.2-5.9c0,0,0,0,0,0v0c0,0,0,0,0,0c0-0.2,0-0.4-0.1-0.7
			c-0.2-1.6-1.2-3-2.8-4C149,225.6,148.9,225.5,148.8,225.4z"/>
		
			<linearGradient id="SVGID_15_" gradientUnits="userSpaceOnUse" x1="105.3369" y1="267.1576" x2="152.1559" y2="266.7796" gradientTransform="matrix(1 0 0 -1 0 516)">
			<stop  offset="0" style="stop-color:#3D78F5"/>
			<stop  offset="0.2066" style="stop-color:#4687FA"/>
			<stop  offset="0.4542" style="stop-color:#3D78F5"/>
		</linearGradient>
		<path class="st22" d="M110.8,256v-14.2l-2.5,2.2c-1.7,1.6-2.7,3.2-3.1,4.8c0,0.1,0,0.3-0.1,0.4v1.3
			C105.5,252.9,107.4,254.9,110.8,256z"/>
	</g>
	
		<linearGradient id="SVGID_16_" gradientUnits="userSpaceOnUse" x1="105.4064" y1="275.7629" x2="152.2253" y2="275.3849" gradientTransform="matrix(1 0 0 -1 0 516)">
		<stop  offset="0" style="stop-color:#3D78F5"/>
		<stop  offset="0.2066" style="stop-color:#4687FA"/>
		<stop  offset="0.4542" style="stop-color:#3D78F5"/>
	</linearGradient>
	<path class="st23" d="M105.2,250.5v-1.3C105.1,249.7,105.1,250.1,105.2,250.5z M152,230.3C152,230.3,152,230.3,152,230.3L152,230.3
		C152,230.4,152,230.4,152,230.3"/>
	
		<linearGradient id="SVGID_17_" gradientUnits="userSpaceOnUse" x1="105.3589" y1="269.8864" x2="152.1779" y2="269.5084" gradientTransform="matrix(1 0 0 -1 0 516)">
		<stop  offset="0" style="stop-color:#3D78F5"/>
		<stop  offset="0.2066" style="stop-color:#4687FA"/>
		<stop  offset="0.4542" style="stop-color:#3D78F5"/>
	</linearGradient>
	<path class="st24" d="M110.8,250.5c-3.4-1.1-5.3-3.1-5.6-5.5v4.2c0-0.1,0-0.3,0.1-0.4c0.3-1.6,1.3-3.2,3.1-4.8l2.5-2.3V250.5z"/>
	
		<linearGradient id="SVGID_18_" gradientUnits="userSpaceOnUse" x1="105.4306" y1="278.7607" x2="152.2495" y2="278.3827" gradientTransform="matrix(1 0 0 -1 0 516)">
		<stop  offset="0" style="stop-color:#3D78F5"/>
		<stop  offset="0.2066" style="stop-color:#4687FA"/>
		<stop  offset="0.4542" style="stop-color:#3D78F5"/>
	</linearGradient>
	<path class="st25" d="M148.8,230.8l-17.2,15.3c-5.1,4.5-14.4,6.5-20.8,4.4v-8.8l14.6-13.1c5.1-4.5,14.4-6.5,20.8-4.4
		c0.9,0.3,1.7,0.7,2.4,1.1c0,0,0.1,0,0.1,0.1V230.8z"/>
	
		<linearGradient id="SVGID_19_" gradientUnits="userSpaceOnUse" x1="105.4085" y1="276.0318" x2="152.2275" y2="275.6538" gradientTransform="matrix(1 0 0 -1 0 516)">
		<stop  offset="0" style="stop-color:#3D78F5"/>
		<stop  offset="0.2066" style="stop-color:#4687FA"/>
		<stop  offset="0.4542" style="stop-color:#3D78F5"/>
	</linearGradient>
	<path class="st26" d="M131.6,251.6l17.2-15.3v-10.8c0,0-0.1,0-0.1-0.1c-0.7-0.4-1.5-0.8-2.4-1.1c-6.4-2.1-15.8-0.1-20.8,4.4
		l-14.6,13.1V256C117.2,258.1,126.6,256.1,131.6,251.6z"/>
	
		<linearGradient id="SVGID_20_" gradientUnits="userSpaceOnUse" x1="105.5084" y1="288.4023" x2="152.3274" y2="288.0243" gradientTransform="matrix(1 0 0 -1 0 516)">
		<stop  offset="0" style="stop-color:#3D78F5"/>
		<stop  offset="0.2066" style="stop-color:#4687FA"/>
		<stop  offset="0.4542" style="stop-color:#3D78F5"/>
	</linearGradient>
	<path class="st27" d="M152,225.1c0,1.9-1.1,3.9-3.2,5.7v-5.4c0.1,0.1,0.2,0.1,0.3,0.2c1.6,1.1,2.6,2.5,2.8,4c0,0.2,0.1,0.4,0.1,0.7
		V225.1z"/>
	
		<linearGradient id="SVGID_21_" gradientUnits="userSpaceOnUse" x1="105.4848" y1="285.4822" x2="152.3038" y2="285.1042" gradientTransform="matrix(1 0 0 -1 0 516)">
		<stop  offset="0" style="stop-color:#3D78F5"/>
		<stop  offset="0.2066" style="stop-color:#4687FA"/>
		<stop  offset="0.4542" style="stop-color:#3D78F5"/>
	</linearGradient>
	<path class="st28" d="M148.8,225.4v10.8c2.2-1.9,3.2-4,3.2-5.9c0,0,0,0,0,0v0c0,0,0,0,0,0c0-0.2,0-0.4-0.1-0.7
		c-0.2-1.6-1.2-3-2.8-4C149,225.6,148.9,225.5,148.8,225.4z"/>
	
		<linearGradient id="SVGID_22_" gradientUnits="userSpaceOnUse" x1="105.3369" y1="267.1576" x2="152.1559" y2="266.7796" gradientTransform="matrix(1 0 0 -1 0 516)">
		<stop  offset="0" style="stop-color:#3D78F5"/>
		<stop  offset="0.2066" style="stop-color:#4687FA"/>
		<stop  offset="0.4542" style="stop-color:#3D78F5"/>
	</linearGradient>
	<path class="st29" d="M110.8,256v-14.2l-2.5,2.3c-1.7,1.6-2.7,3.2-3.1,4.8c0,0.1,0,0.3-0.1,0.4v1.3
		C105.5,252.9,107.4,254.9,110.8,256z"/>
	<g>
		
			<linearGradient id="SVGID_23_" gradientUnits="userSpaceOnUse" x1="-511.7989" y1="834.096" x2="-550.2752" y2="847.6418" gradientTransform="matrix(0.7457 -0.6663 -0.9508 -0.3098 1326.7223 140.0186)">
			<stop  offset="0" style="stop-color:#4782FF"/>
			<stop  offset="1" style="stop-color:#5B90FF"/>
		</linearGradient>
		<path class="st30" d="M108.3,238.6l17.2-15.3c5.1-4.5,14.4-6.5,20.8-4.4l0,0c6.4,2.1,7.6,7.5,2.5,12l-17.2,15.3
			c-5.1,4.5-14.4,6.5-20.8,4.4l0,0C104.3,248.4,103.2,243.1,108.3,238.6z"/>
	</g>
	<g>
		<path class="st10" d="M110.1,239.3l17.5-15.6c4.2-3.8,12-5.4,17.3-3.6l0,0c5.4,1.7,6.3,6.2,2.1,10l-17.5,15.6
			c-4.2,3.8-12,5.4-17.3,3.6l0,0C106.8,247.6,105.9,243.1,110.1,239.3z"/>
		<path class="st11" d="M110.1,239.3l17.5-15.6c4.2-3.8,12-5.4,17.3-3.6l0,0c5.4,1.7,6.3,6.2,2.1,10l-17.5,15.6
			c-4.2,3.8-12,5.4-17.3,3.6l0,0C106.8,247.6,105.9,243.1,110.1,239.3z"/>
	</g>
	<path class="st12" d="M110.1,239.3c-2.1,1.9-2.9,3.9-2.5,5.8c0.3-1.3,1.1-2.7,2.5-4l17.5-15.6c4.2-3.8,12-5.4,17.3-3.6
		c2.7,0.9,4.2,2.4,4.6,4.2c0.5-2.5-1.1-4.9-4.6-6c-5.4-1.7-13.1-0.1-17.3,3.6L110.1,239.3z M149.6,226.6L149.6,226.6
		c0,0,0,0.1,0,0.1L149.6,226.6z"/>
	<path class="st13" d="M110.1,239.3c-2.1,1.9-2.9,3.9-2.5,5.8c0.3-1.3,1.1-2.7,2.5-4l17.5-15.6c4.2-3.8,12-5.4,17.3-3.6
		c2.7,0.9,4.2,2.4,4.6,4.2c0.5-2.5-1.1-4.9-4.6-6c-5.4-1.7-13.1-0.1-17.3,3.6L110.1,239.3z M149.6,226.6L149.6,226.6
		c0,0,0,0.1,0,0.1L149.6,226.6z"/>
	<defs>
		<filter id="Adobe_OpacityMaskFilter_1_" filterUnits="userSpaceOnUse" x="126.3" y="220.2" width="22" height="16.4">
			<feColorMatrix  type="matrix" values="1 0 0 0 0  0 1 0 0 0  0 0 1 0 0  0 0 0 1 0"/>
		</filter>
	</defs>
	<mask maskUnits="userSpaceOnUse" x="126.3" y="220.2" width="22" height="16.4" id="mask1_1_">
		<path class="st31" d="M110.1,239.3l17.5-15.6c4.2-3.8,12-5.4,17.3-3.6l0,0c5.4,1.7,6.3,6.2,2.1,10l-17.5,15.6
			c-4.2,3.8-12,5.4-17.3,3.6l0,0C106.8,247.6,105.9,243.1,110.1,239.3z"/>
		<path class="st11" d="M110.1,239.3l17.5-15.6c4.2-3.8,12-5.4,17.3-3.6l0,0c5.4,1.7,6.3,6.2,2.1,10l-17.5,15.6
			c-4.2,3.8-12,5.4-17.3,3.6l0,0C106.8,247.6,105.9,243.1,110.1,239.3z"/>
	</mask>
	<g class="st32">
		<g>
			<path class="st33" d="M126.6,229.9c-0.2,0.5-0.3,1-0.3,1.5c0,0.1,0,0.1,0,0.2c0.1,1.8,1.5,3.5,4.2,4.3c4.8,1.5,11.7,0.1,15.4-3.2
				c1.5-1.3,2.3-2.7,2.3-4c0-0.1,0-0.3,0-0.4c0-0.5-0.1-0.9-0.3-1.3c-0.4,0.9-1,1.8-2,2.6c-3.7,3.3-10.6,4.7-15.4,3.2
				C128.5,232.1,127.2,231.1,126.6,229.9z M148.2,225.1c0,0.1,0,0.3,0,0.4V225.1z"/>
			<path class="st34" d="M147.9,227c0.2,0.4,0.3,0.9,0.3,1.3v-2.8C148.2,226,148.1,226.5,147.9,227z"/>
			<path class="st34" d="M126.3,228.4v3c0-0.5,0.1-1,0.3-1.5C126.4,229.4,126.3,228.9,126.3,228.4z"/>
		</g>
		
			<linearGradient id="SVGID_24_" gradientUnits="userSpaceOnUse" x1="126.3972" y1="285.2894" x2="148.3061" y2="285.0916" gradientTransform="matrix(1 0 0 -1 0 516)">
			<stop  offset="0" style="stop-color:#3D78F5"/>
			<stop  offset="0.2066" style="stop-color:#4687FA"/>
			<stop  offset="0.4542" style="stop-color:#3065E4"/>
		</linearGradient>
		<path class="st35" d="M126.6,229.9c-0.2,0.5-0.3,1-0.3,1.5c0,0.1,0,0.1,0,0.2c0.1,1.8,1.5,3.5,4.2,4.3c4.8,1.5,11.7,0.1,15.4-3.2
			c1.5-1.3,2.3-2.7,2.3-4c0-0.1,0-0.3,0-0.4c0-0.5-0.1-0.9-0.3-1.3c-0.4,0.9-1,1.8-2,2.6c-3.7,3.3-10.6,4.7-15.4,3.2
			C128.5,232.1,127.2,231.1,126.6,229.9z M148.2,225.1c0,0.1,0,0.3,0,0.4V225.1z"/>
		
			<linearGradient id="SVGID_25_" gradientUnits="userSpaceOnUse" x1="126.433" y1="289.2546" x2="148.358" y2="289.0566" gradientTransform="matrix(1 0 0 -1 0 516)">
			<stop  offset="0" style="stop-color:#3D78F5"/>
			<stop  offset="0.2066" style="stop-color:#4687FA"/>
			<stop  offset="0.4542" style="stop-color:#3065E4"/>
		</linearGradient>
		<path class="st36" d="M147.9,227c0.2,0.4,0.3,0.9,0.3,1.3v-2.8C148.2,226,148.1,226.5,147.9,227z"/>
		
			<linearGradient id="SVGID_26_" gradientUnits="userSpaceOnUse" x1="126.4043" y1="286.0793" x2="148.3293" y2="285.8813" gradientTransform="matrix(1 0 0 -1 0 516)">
			<stop  offset="0" style="stop-color:#3D78F5"/>
			<stop  offset="0.2066" style="stop-color:#4687FA"/>
			<stop  offset="0.4542" style="stop-color:#3065E4"/>
		</linearGradient>
		<path class="st37" d="M126.3,228.4v3c0-0.5,0.1-1,0.3-1.5C126.4,229.4,126.3,228.9,126.3,228.4z"/>
		<g>
			
				<linearGradient id="SVGID_27_" gradientUnits="userSpaceOnUse" x1="-539.3235" y1="843.3114" x2="-555.2086" y2="846.1744" gradientTransform="matrix(0.7457 -0.6663 -0.9508 -0.3098 1349.5073 123.3016)">
				<stop  offset="0" style="stop-color:#4782FF"/>
				<stop  offset="1" style="stop-color:#5B90FF"/>
			</linearGradient>
			<path class="st38" d="M128.6,224L128.6,224c3.7-3.3,10.6-4.8,15.3-3.2l0.1,0c4.7,1.5,5.6,5.5,1.9,8.8l0,0
				c-3.7,3.3-10.6,4.8-15.3,3.2l-0.1,0C125.7,231.3,124.9,227.3,128.6,224z"/>
		</g>
	</g>
	<polygon class="st39" points="105.7,314.1 136.7,286.4 136.5,484.1 105.5,511.9 	"/>
	<polygon class="st40" points="53.9,297.3 105.7,314.1 105.4,566.1 53.6,549.2 	"/>
	<polygon class="st10" points="53.8,297.2 85,269.4 136.8,286.3 105.7,314.1 	"/>
	
		<linearGradient id="SVGID_28_" gradientUnits="userSpaceOnUse" x1="-548.5038" y1="856.6131" x2="-524.3145" y2="796.7127" gradientTransform="matrix(0.7457 -0.6663 -0.9508 -0.3098 1281.4403 190.4816)">
		<stop  offset="0" style="stop-color:#FFFFFF;stop-opacity:0"/>
		<stop  offset="1" style="stop-color:#FFFFFF"/>
	</linearGradient>
	<polygon class="st41" points="53.8,297.2 85,269.4 136.8,286.3 105.7,314.1 	"/>
	<g class="st42">
		<path class="st43" d="M114.2,340l-16.7,88.9l7.6,82.4l-34.7,9.2l4.6-85.6l4.6-85.6L114.2,340z"/>
		<g>
			<polygon class="st44" points="152.3,319.9 142.4,505.4 44.5,531.5 54.4,346.1 			"/>
		</g>
	</g>
	<g class="st45">
		<path class="st43" d="M135.2,315.2l-8.3,87.6l7.2,83.5l-22,5.9l0.5-85.5l0.5-85.5L135.2,315.2z"/>
		<g>
			<path class="st44" d="M137.1,288.5l-1.5,213.6l-30.5,29.5l1.5-213.6L137.1,288.5z"/>
		</g>
	</g>
	<g>
		<path class="st46" d="M380.2,314.7c33.8,13.3,126.7,68,107.3,154.7"/>
	</g>
	<polygon class="st39" points="310.3,270.7 390.7,198.8 390.5,336.1 310.1,408.1 	"/>
	<polygon class="st40" points="172.6,224 311.7,269.3 311.6,345.5 172.5,300.2 	"/>
	<polygon class="st39" points="231.4,397 311.8,325 311.6,493.2 231.2,565.1 	"/>
	
		<linearGradient id="SVGID_29_" gradientUnits="userSpaceOnUse" x1="-619.1176" y1="381.241" x2="-619.1176" y2="196.06" gradientTransform="matrix(0.9508 0.3097 1.060730e-03 -1 749.9856 947.3101)">
		<stop  offset="0" style="stop-color:#C7DBFF"/>
		<stop  offset="1" style="stop-color:#C4D9FF"/>
	</linearGradient>
	<polygon class="st47" points="92.1,351.7 231.3,397 231.1,582.2 92,536.8 	"/>
	
		<linearGradient id="SVGID_30_" gradientUnits="userSpaceOnUse" x1="-619.1176" y1="381.241" x2="-619.1176" y2="196.06" gradientTransform="matrix(0.9508 0.3097 1.060730e-03 -1 749.9856 947.3101)">
		<stop  offset="0" style="stop-color:#FFFFFF"/>
		<stop  offset="1" style="stop-color:#FFFFFF;stop-opacity:0"/>
	</linearGradient>
	<polygon class="st48" points="92.1,351.7 231.3,397 231.1,582.2 92,536.8 	"/>
	<polygon class="st49" points="92.1,351.6 172.5,279.8 311.8,325.2 231.4,397 	"/>
	
		<linearGradient id="SVGID_31_" gradientUnits="userSpaceOnUse" x1="-536.7149" y1="860.0695" x2="-469.9153" y2="701.0072" gradientTransform="matrix(0.7457 -0.6663 -0.9508 -0.3098 1319.6963 244.8676)">
		<stop  offset="0" style="stop-color:#FFFFFF;stop-opacity:0"/>
		<stop  offset="1" style="stop-color:#FFFFFF"/>
	</linearGradient>
	<polygon class="st50" points="92.1,351.6 172.5,279.8 311.8,325.2 231.4,397 	"/>
	<g class="st51">
		
			<linearGradient id="SVGID_32_" gradientUnits="userSpaceOnUse" x1="-676.6814" y1="369.923" x2="-672.6132" y2="246.7782" gradientTransform="matrix(0.9508 0.3097 1.060730e-03 -1 753.1786 999.0131)">
			<stop  offset="0" style="stop-color:#96B2E4"/>
			<stop  offset="1" style="stop-color:#96B2E4;stop-opacity:0"/>
		</linearGradient>
		<polygon class="st52" points="95.3,403.4 128.5,414.2 128.4,548.7 95.2,537.9 		"/>
		<g>
			<polygon class="st53" points="89.8,391.1 135.2,405.9 135.1,550.9 89.6,536.1 			"/>
		</g>
	</g>
	<g class="st45">
		<polygon class="st10" points="223.9,384.7 286.3,328.9 301.9,334 239.5,389.8 		"/>
		
			<linearGradient id="SVGID_33_" gradientUnits="userSpaceOnUse" x1="-515.484" y1="854.0253" x2="-515.484" y2="837.6562" gradientTransform="matrix(0.7457 -0.6663 -0.9508 -0.3098 1451.5002 277.9635)">
			<stop  offset="0" style="stop-color:#7A9FE2;stop-opacity:0.47"/>
			<stop  offset="1" style="stop-color:#5C85CD"/>
			<stop  offset="1" style="stop-color:#4E7BCB"/>
		</linearGradient>
		<polygon class="st54" points="223.9,384.7 286.3,328.9 301.9,334 239.5,389.8 		"/>
	</g>
	<polygon class="st49" points="172.5,224 251.4,153.5 390.7,198.9 311.8,269.4 	"/>
	
		<linearGradient id="SVGID_34_" gradientUnits="userSpaceOnUse" x1="-538.1429" y1="859.621" x2="-470.4729" y2="701.4588" gradientTransform="matrix(0.7457 -0.6663 -0.9508 -0.3098 1400.0823 117.2816)">
		<stop  offset="0" style="stop-color:#FFFFFF;stop-opacity:0"/>
		<stop  offset="1" style="stop-color:#FFFFFF"/>
	</linearGradient>
	<polygon class="st55" points="172.5,224 251.4,153.5 390.7,198.9 311.8,269.4 	"/>
	<g>
		<polygon class="st56" points="363.7,226.2 385.7,206.4 385.6,325.4 363.6,345.2 		"/>
	</g>
	<g>
		<polygon class="st57" points="348.9,242.6 387.8,207.6 387.6,324.6 348.7,359.6 		"/>
	</g>
	<g>
		<polygon class="st57" points="348.9,250.6 385.7,217.4 385.6,326.4 348.7,359.6 		"/>
	</g>
	<g>
		<polygon class="st58" points="348.8,272.5 392.7,233 392.6,317.6 348.7,357 		"/>
	</g>
	<path class="st59" d="M454.2,281.6c-10.9-3.6-23.1-5.8-36-6.6c-12.9-0.8-26.1-0.1-38.9,2c-12.8,2.1-25.1,5.5-36,10.2
		c-10.9,4.6-20.2,10.4-27.5,16.9l43.9,14.3c3.4-3.1,7.8-5.8,13-8c5.1-2.2,10.9-3.8,17-4.8c6.1-1,12.3-1.3,18.4-0.9
		c6.1,0.4,11.8,1.4,17,3.1l0,0L454.2,281.6z"/>
	
		<linearGradient id="SVGID_35_" gradientUnits="userSpaceOnUse" x1="359.8683" y1="251.3659" x2="451.2523" y2="149.0839" gradientTransform="matrix(1 0 0 -1 0 516)">
		<stop  offset="0" style="stop-color:#FFFFFF"/>
		<stop  offset="1" style="stop-color:#FFFFFF;stop-opacity:0"/>
	</linearGradient>
	<path class="st60" d="M454.2,281.6c-10.9-3.6-23.1-5.8-36-6.6c-12.9-0.8-26.1-0.1-38.9,2c-12.8,2.1-25.1,5.5-36,10.2
		c-10.9,4.6-20.2,10.4-27.5,16.9l43.9,14.3c3.4-3.1,7.8-5.8,13-8c5.1-2.2,10.9-3.8,17-4.8c6.1-1,12.3-1.3,18.4-0.9
		c6.1,0.4,11.8,1.4,17,3.1l0,0L454.2,281.6z"/>
	<path class="st59" d="M372.7,310.3c-5.1,2.2-9.5,4.9-13,8V364c6.3-1.8,12.9-3.3,19.6-4.4c12.8-2.1,26.1-2.7,38.9-2
		c2.2,0.1,4.5,0.3,6.7,0.6v-50.5c-5.1-1.7-10.9-2.7-17-3.1c-6.1-0.4-12.3-0.1-18.4,0.9C383.6,306.5,377.8,308.1,372.7,310.3z"/>
	
		<linearGradient id="SVGID_36_" gradientUnits="userSpaceOnUse" x1="356.4722" y1="181.7588" x2="424.9722" y2="181.7588" gradientTransform="matrix(1 0 0 -1 0 516)">
		<stop  offset="0" style="stop-color:#000000"/>
		<stop  offset="1" style="stop-color:#000000;stop-opacity:0"/>
	</linearGradient>
	<path class="st61" d="M372.7,310.3c-5.1,2.2-9.5,4.9-13,8V364c6.3-1.8,12.9-3.3,19.6-4.4c12.8-2.1,26.1-2.7,38.9-2
		c2.2,0.1,4.5,0.3,6.7,0.6v-50.5c-5.1-1.7-10.9-2.7-17-3.1c-6.1-0.4-12.3-0.1-18.4,0.9C383.6,306.5,377.8,308.1,372.7,310.3z"/>
	<path class="st59" d="M418.2,357.7c-12.9-0.8-26.1-0.1-38.9,2c-6.8,1.1-13.3,2.6-19.6,4.4v37c3.4-3.1,7.8-5.8,13-8
		c5.1-2.2,10.9-3.8,17-4.8c6.1-1,12.3-1.3,18.4-0.9c6.1,0.4,11.8,1.4,17,3.1v-32.2C422.7,358,420.5,357.8,418.2,357.7z"/>
	
		<linearGradient id="SVGID_37_" gradientUnits="userSpaceOnUse" x1="356.4722" y1="136.8153" x2="424.9722" y2="136.8153" gradientTransform="matrix(1 0 0 -1 0 516)">
		<stop  offset="0" style="stop-color:#000000"/>
		<stop  offset="1" style="stop-color:#000000;stop-opacity:0"/>
	</linearGradient>
	<path class="st62" d="M418.2,357.7c-12.9-0.8-26.1-0.1-38.9,2c-6.8,1.1-13.3,2.6-19.6,4.4v37c3.4-3.1,7.8-5.8,13-8
		c5.1-2.2,10.9-3.8,17-4.8c6.1-1,12.3-1.3,18.4-0.9c6.1,0.4,11.8,1.4,17,3.1v-32.2C422.7,358,420.5,357.8,418.2,357.7z"/>
	<path class="st10" d="M479.4,341.1c7.3-6.5,12.3-13.6,14.9-21c2.6-7.4,2.5-14.8,0-21.9c-2.6-7.1-7.6-13.7-14.9-19.5
		c-7.3-5.8-16.7-10.6-27.6-14.1l-29.3,26.1c5.1,1.7,9.6,3.9,13,6.7c3.4,2.7,5.8,5.8,7,9.2c1.2,3.4,1.2,6.9,0,10.3
		c-1.2,3.5-3.6,6.8-7,9.9L479.4,341.1z"/>
	
		<linearGradient id="SVGID_38_" gradientUnits="userSpaceOnUse" x1="460.533" y1="213.6619" x2="530.3231" y2="206.9189" gradientTransform="matrix(1 0 0 -1 0 516)">
		<stop  offset="0" style="stop-color:#FFFFFF;stop-opacity:0"/>
		<stop  offset="1" style="stop-color:#FFFFFF"/>
	</linearGradient>
	<path class="st63" d="M479.4,341.1c7.3-6.5,12.3-13.6,14.9-21c2.6-7.4,2.5-14.8,0-21.9c-2.6-7.1-7.6-13.7-14.9-19.5
		c-7.3-5.8-16.7-10.6-27.6-14.1l-29.3,26.1c5.1,1.7,9.6,3.9,13,6.7c3.4,2.7,5.8,5.8,7,9.2c1.2,3.4,1.2,6.9,0,10.3
		c-1.2,3.5-3.6,6.8-7,9.9L479.4,341.1z"/>
	<g class="st42">
		<path class="st64" d="M482,338.6c6.7-6.7,11.2-13.9,13.1-21.3c1.9-7.4,1.3-14.8-1.9-21.8c-3.2-7-8.8-13.4-16.7-19
			c-7.8-5.5-17.6-10-28.9-13.3l-27.1,26.8c5.3,1.5,9.9,3.6,13.6,6.3c3.7,2.6,6.4,5.7,7.9,9c1.5,3.3,1.8,6.8,0.9,10.3
			c-0.9,3.5-3,6.9-6.2,10L482,338.6z"/>
	</g>
	<path class="st10" d="M435.8,297.3c-3.4-2.7-7.9-5-13-6.7v41l20.9-18.7c0.2-2.2-0.1-4.4-0.8-6.5C441.6,303.2,439.2,300,435.8,297.3
		z"/>
	<path class="st40" d="M435.8,297.3c-3.4-2.7-7.9-5-13-6.7v41l20.9-18.7c0.2-2.2-0.1-4.4-0.8-6.5C441.6,303.2,439.2,300,435.8,297.3
		z"/>
	
		<linearGradient id="SVGID_39_" gradientUnits="userSpaceOnUse" x1="421.937" y1="204.8371" x2="445.437" y2="204.3371" gradientTransform="matrix(1 0 0 -1 0 516)">
		<stop  offset="0" style="stop-color:#000000"/>
		<stop  offset="1" style="stop-color:#000000;stop-opacity:0"/>
	</linearGradient>
	<path class="st65" d="M435.8,297.3c-3.4-2.7-7.9-5-13-6.7v41l20.9-18.7c0.2-2.2-0.1-4.4-0.8-6.5C441.6,303.2,439.2,300,435.8,297.3
		z"/>
	<path class="st12" d="M435.8,326.8v11.6c0,0,0,0,0,0c-3.4-2.7-7.9-5-13-6.7l20.9-18.7c-0.1,1.3-0.4,2.5-0.8,3.8
		C441.6,320.3,439.2,323.7,435.8,326.8z"/>
	<path class="st66" d="M435.8,326.8v11.6c0,0,0,0,0,0c-3.4-2.7-7.9-5-13-6.7l20.9-18.7c-0.1,1.3-0.4,2.5-0.8,3.8
		C441.6,320.3,439.2,323.7,435.8,326.8z"/>
	
		<linearGradient id="SVGID_40_" gradientUnits="userSpaceOnUse" x1="421.6354" y1="190.6636" x2="445.1354" y2="190.1636" gradientTransform="matrix(1 0 0 -1 0 516)">
		<stop  offset="0" style="stop-color:#000000"/>
		<stop  offset="1" style="stop-color:#000000;stop-opacity:0"/>
	</linearGradient>
	<path class="st67" d="M435.8,326.8v11.6c0,0,0,0,0,0c-3.4-2.7-7.9-5-13-6.7l20.9-18.7c-0.1,1.3-0.4,2.5-0.8,3.8
		C441.6,320.3,439.2,323.7,435.8,326.8z"/>
	<path class="st10" d="M479.6,382.1c7.3-6.5,12.3-13.6,14.9-21c1.4-4,2-7.9,1.9-11.9c-0.1-3.4-0.7-6.8-1.9-10
		c-1.2-3.2-2.8-6.3-5-9.3c-2.6,3.9-5.9,7.6-9.9,11.2V382.1z"/>
	
		<linearGradient id="SVGID_41_" gradientUnits="userSpaceOnUse" x1="483.5865" y1="159.9403" x2="500.6364" y2="161.0603" gradientTransform="matrix(1 0 0 -1 0 516)">
		<stop  offset="0" style="stop-color:#B5CAF1"/>
		<stop  offset="1" style="stop-color:#B5CAF1;stop-opacity:0.66"/>
	</linearGradient>
	<path class="st68" d="M479.6,382.1c7.3-6.5,12.3-13.6,14.9-21c1.4-4,2-7.9,1.9-11.9c-0.1-3.4-0.7-6.8-1.9-10
		c-1.2-3.2-2.8-6.3-5-9.3c-2.6,3.9-5.9,7.6-9.9,11.2V382.1z"/>
	<path class="st10" d="M494.5,339.2c1.2,3.3,1.8,6.7,1.9,10v-39.4c-0.1,3.4-0.7,6.8-1.9,10.2c-1.1,3.3-2.8,6.6-5,9.8
		C491.7,332.9,493.3,336,494.5,339.2z"/>
	
		<linearGradient id="SVGID_42_" gradientUnits="userSpaceOnUse" x1="481.9077" y1="185.4966" x2="498.9576" y2="186.6165" gradientTransform="matrix(1 0 0 -1 0 516)">
		<stop  offset="0" style="stop-color:#B5CAF1"/>
		<stop  offset="1" style="stop-color:#B5CAF1;stop-opacity:0.66"/>
	</linearGradient>
	<path class="st69" d="M494.5,339.2c1.2,3.3,1.8,6.7,1.9,10v-39.4c-0.1,3.4-0.7,6.8-1.9,10.2c-1.1,3.3-2.8,6.6-5,9.8
		C491.7,332.9,493.3,336,494.5,339.2z"/>
	<path class="st40" d="M442.8,347.6c1.2,3.4,1.2,6.9,0,10.3c-1.2,3.5-3.6,6.8-7,9.9l43.9,14.3v-41l-43.9-14.3v11.6
		c0.2,0.2,0.4,0.3,0.6,0.5C439.5,341.5,441.7,344.4,442.8,347.6z"/>
	<path class="st40" d="M442.8,357.9c1.2-3.5,1.2-7,0-10.3c-1.1-3.1-3.3-6.1-6.4-8.7c-0.2-0.2-0.4-0.3-0.6-0.5v29.4
		C439.2,364.7,441.6,361.4,442.8,357.9z"/>
	<g class="st70">
		<defs>
			<filter id="Adobe_OpacityMaskFilter_2_" filterUnits="userSpaceOnUse" x="232" y="259.5" width="97" height="90.4">
				<feColorMatrix  type="matrix" values="1 0 0 0 0  0 1 0 0 0  0 0 1 0 0  0 0 0 1 0"/>
			</filter>
		</defs>
		<mask maskUnits="userSpaceOnUse" x="232" y="259.5" width="97" height="90.4" id="mask2_1_">
			
				<linearGradient id="SVGID_43_" gradientUnits="userSpaceOnUse" x1="-619.1176" y1="381.241" x2="-619.1176" y2="305.5174" gradientTransform="matrix(0.9508 0.3097 1.060730e-03 -1 830.8906 821.1581)">
				<stop  offset="0" style="stop-color:#C7DBFF"/>
				<stop  offset="1" style="stop-color:#C4D9FF"/>
			</linearGradient>
			<polygon class="st71" points="173.1,225.5 312.2,270.8 312.1,346.6 173,301.2 			"/>
		</mask>
		<g class="st72">
			<g class="st51">
				<g>
					<path class="st73" d="M298.8,276c-9.4,0-18,2-25.3,5.7c-7.4,3.7-13.4,9.2-17.6,16.1l68.3,52.1L298.8,276z"/>
				</g>
				<g>
					<path class="st74" d="M308.8,276.7c-13.4-1.8-25.9,0-35.9,5.3c-10.1,5.3-17.5,13.8-21.3,24.7l66.2,39.4c0.3-1,1-1.7,1.9-2.2
						c0.9-0.5,2-0.6,3.1-0.5L308.8,276.7z"/>
				</g>
				<g>
					<path class="st74" d="M329,266.3c-23.8-8.9-47.2-9.1-65.2-0.7c-18.1,8.5-29.4,25-31.7,46.1l60.6,25.1
						c0.8-7.2,4.7-12.9,10.9-15.8c6.2-2.9,14.2-2.8,22.3,0.2L329,266.3z"/>
				</g>
				<g>
					<path class="st74" d="M329,266.3c-23.8-8.9-47.2-9.1-65.2-0.7c-18.1,8.5-29.4,25-31.7,46.1l48.1,19.9c1.1-10.1,6.5-18,15.2-22
						c8.6-4,19.8-3.9,31.2,0.3L329,266.3z"/>
				</g>
			</g>
		</g>
	</g>
	<g class="st75">
		<path class="st76" d="M175,263.9l67.2,29.9l67.2,13.9l0,22.7l-67.2-21.9l-67.2-21.9L175,263.9z"/>
		<g>
			<polygon class="st44" points="173,238.7 311.9,283.9 311.9,348.1 173,302.9 			"/>
		</g>
	</g>
	<g class="st45">
		<path class="st43" d="M265.4,391.1l-11.6,75.1l3.8,71l-22,5.9l3.9-73.1l3.9-73.1L265.4,391.1z"/>
		<g>
			<polygon class="st44" points="290.2,366.3 280.5,548.7 218.5,565.3 228.2,382.8 			"/>
		</g>
	</g>
	<g>
		<path class="st77" d="M232.4,344.4l6.1-7.7c0.4-0.5,0.2-1.3-0.5-1.6l-66.8-22.6c-0.6-0.2-1.3,0.3-1.3,0.9v4.6"/>
	</g>
	<g>
		<path class="st78" d="M239,297.1v50.7"/>
	</g>
	<g class="st79">
		<g class="st75">
			
				<linearGradient id="SVGID_44_" gradientUnits="userSpaceOnUse" x1="-16.5393" y1="954.1237" x2="-16.5393" y2="917.1237" gradientTransform="matrix(-0.9507 -0.3101 -0.7454 0.6666 902.4238 -293.4734)">
				<stop  offset="0" style="stop-color:#1F70FF"/>
				<stop  offset="1" style="stop-color:#1F70FF;stop-opacity:0.99"/>
			</linearGradient>
			<polygon class="st80" points="245.4,360.2 168.4,335.1 196,310.4 273,335.5 			"/>
		</g>
		<g>
			<polygon class="st57" points="258.6,360.2 161.6,328.6 187.7,305.2 284.7,336.9 			"/>
		</g>
		<g>
			<polygon class="st57" points="264.5,352.7 167.6,321.1 182.2,308 279.2,339.6 			"/>
		</g>
	</g>
	<g>
		<path class="st81" d="M163,268.5c0-2.8,2.1-4.3,4.8-3.4l71.4,23.3c2.6,0.9,4.8,3.8,4.7,6.5l-0.1,51.6c0,2.8-2.1,4.3-4.8,3.5
			l-71.4-23.3c-2.6-0.9-4.8-3.8-4.7-6.5L163,268.5z"/>
		
			<linearGradient id="SVGID_45_" gradientUnits="userSpaceOnUse" x1="228.443" y1="234.2359" x2="177.609" y2="181.9269" gradientTransform="matrix(1 0 0 -1 0 516)">
			<stop  offset="0" style="stop-color:#FFFFFF;stop-opacity:0.51"/>
			<stop  offset="0.3728" style="stop-color:#FFFFFF"/>
			<stop  offset="0.3884" style="stop-color:#FFFFFF;stop-opacity:0"/>
		</linearGradient>
		<path class="st82" d="M163,268.5c0-2.8,2.1-4.3,4.8-3.4l71.4,23.3c2.6,0.9,4.8,3.8,4.7,6.5l-0.1,51.6c0,2.8-2.1,4.3-4.8,3.5
			l-71.4-23.3c-2.6-0.9-4.8-3.8-4.7-6.5L163,268.5z"/>
	</g>
	<defs>
		<filter id="Adobe_OpacityMaskFilter_3_" filterUnits="userSpaceOnUse" x="162.9" y="264.8" width="81" height="85.4">
			<feColorMatrix  type="matrix" values="1 0 0 0 0  0 1 0 0 0  0 0 1 0 0  0 0 0 1 0"/>
		</filter>
	</defs>
	<mask maskUnits="userSpaceOnUse" x="162.9" y="264.8" width="81" height="85.4" id="mask3_1_">
		<path class="st83" d="M162.9,317.3c0-2.8,2.1-4.3,4.8-3.4l71.4,23.3c2.6,0.9,4.8,3.8,4.7,6.6l0,2.8c0,2.8-2.1,4.3-4.8,3.5
			l-71.4-23.3c-2.6-0.9-4.8-3.8-4.7-6.6L162.9,317.3z"/>
		<path class="st84" d="M237.6,305.1c2.3,0,3.7-2,3.3-4.6l-0.3-2.1c-0.4-2.8-2.8-5.4-5.3-5.8l-11.6-2.1c-2.4-0.4-4.2,1.2-4.1,3.7
			l0.1,4.2c0.1,3.3,3.1,6.7,6.2,6.7H237.6z"/>
	</mask>
	<g class="st85">
		<g>
			<path class="st86" d="M167.7,265.1c-2.6-0.9-4.8,0.7-4.8,3.4l-0.1,51.6c0,2.8,2.1,5.7,4.7,6.5l71.4,23.3c2.6,0.9,4.8-0.7,4.8-3.5
				l0.1-51.6c0-2.8-2.1-5.7-4.7-6.5L167.7,265.1z M236.7,298.4c0,0.9,0.7,1.8,1.7,2.1c0.9,0.3,1.7-0.1,1.7-1c0-0.9-0.7-1.8-1.7-2.1
				C237.4,297.1,236.7,297.5,236.7,298.4z M222.1,338.2c0,0.9,0.7,1.8,1.7,2.1c0.9,0.3,1.7-0.1,1.7-1c0-0.9-0.7-1.8-1.7-2.1
				C222.9,336.9,222.1,337.3,222.1,338.2z M228.9,340.3c0,0.9,0.7,1.8,1.7,2.1c0.9,0.3,1.7-0.1,1.7-1c0-0.9-0.7-1.8-1.7-2.1
				C229.7,339,228.9,339.4,228.9,340.3z M237.4,344.5c-0.9-0.3-1.7-1.2-1.7-2.1c0-0.9,0.8-1.3,1.7-1s1.7,1.2,1.7,2.1
				C239.1,344.3,238.4,344.8,237.4,344.5z"/>
		</g>
	</g>
	<defs>
		<filter id="Adobe_OpacityMaskFilter_4_" filterUnits="userSpaceOnUse" x="162.7" y="264.2" width="80.3" height="85.4">
			<feColorMatrix  type="matrix" values="1 0 0 0 0  0 1 0 0 0  0 0 1 0 0  0 0 0 1 0"/>
		</filter>
	</defs>
	<mask maskUnits="userSpaceOnUse" x="162.7" y="264.2" width="80.3" height="85.4" id="mask4_1_">
		<path class="st87" d="M167,266.3l72.6,23.7c1.6,0.5,2.9,2.3,2.8,3.9l-0.1,52c0,1.7-1.3,2.6-2.9,2.1L167,324.3
			c-1.6-0.5-2.9-2.3-2.8-3.9l0.1-52C164.2,266.7,165.5,265.8,167,266.3z"/>
	</mask>
	<g class="st88">
		<g class="st42">
			<polygon class="st89" points="163,264.5 172.9,267.8 172.9,326.4 162.9,323.2 			"/>
			<polygon class="st89" points="172.9,267.8 182.9,271 182.8,329.7 172.9,326.4 			"/>
			<polygon class="st89" points="182.9,271 192.9,274.3 192.8,332.9 182.8,329.7 			"/>
			<polygon class="st89" points="192.9,274.3 202.8,277.5 202.8,336.2 192.8,332.9 			"/>
			<polygon class="st89" points="202.9,277.5 212.8,280.8 212.8,339.4 202.8,336.2 			"/>
			<polygon class="st89" points="212.8,280.8 222.8,284 222.7,342.7 212.8,339.4 			"/>
			<polygon class="st89" points="222.8,284 232.8,287.3 232.7,345.9 222.7,342.7 			"/>
			<polygon class="st89" points="232.8,287.3 242.7,290.5 242.7,349.2 232.7,345.9 			"/>
			<polygon class="st89" points="162.9,323.2 162.9,316.1 242.7,342.1 242.7,349.2 			"/>
			<polygon class="st89" points="162.9,316.1 162.9,308.7 242.7,334.8 242.7,342.1 			"/>
			<polygon class="st89" points="162.9,308.7 162.9,301.4 242.7,327.4 242.7,334.7 			"/>
			<polygon class="st89" points="162.9,301.4 162.9,294 242.7,320 242.7,327.4 			"/>
			<polygon class="st89" points="162.9,294 162.9,286.6 242.7,312.6 242.7,320 			"/>
			<polygon class="st89" points="162.9,286.6 163,279.3 242.7,305.3 242.7,312.6 			"/>
			<polygon class="st89" points="163,279.3 163,271.9 242.7,297.9 242.7,305.3 			"/>
			<polygon class="st89" points="163,271.9 163,264.5 242.7,290.5 242.7,297.9 			"/>
		</g>
		<path class="st90" d="M222.1,338.2c0,0.9,0.7,1.8,1.7,2.1c0.9,0.3,1.7-0.1,1.7-1c0-0.9-0.7-1.8-1.7-2.1S222.1,337.3,222.1,338.2z
			 M228.9,340.3c0,0.9,0.7,1.8,1.7,2.1c0.9,0.3,1.7-0.1,1.7-1c0-0.9-0.7-1.8-1.7-2.1C229.7,339,228.9,339.4,228.9,340.3z
			 M237.4,344.5c-0.9-0.3-1.7-1.2-1.7-2.1c0-0.9,0.8-1.3,1.7-1c0.9,0.3,1.7,1.2,1.7,2.1C239.1,344.3,238.4,344.8,237.4,344.5z"/>
		<path class="st91" d="M222.1,338.2c0,0.9,0.7,1.8,1.7,2.1c0.9,0.3,1.7-0.1,1.7-1c0-0.9-0.7-1.8-1.7-2.1S222.1,337.3,222.1,338.2z
			 M228.9,340.3c0,0.9,0.7,1.8,1.7,2.1c0.9,0.3,1.7-0.1,1.7-1c0-0.9-0.7-1.8-1.7-2.1C229.7,339,228.9,339.4,228.9,340.3z
			 M237.4,344.5c-0.9-0.3-1.7-1.2-1.7-2.1c0-0.9,0.8-1.3,1.7-1c0.9,0.3,1.7,1.2,1.7,2.1C239.1,344.3,238.4,344.8,237.4,344.5z"/>
	</g>
	<g>
		<path class="st92" d="M238.1,297.3c0.1,0,0.2,0,0.3,0.1c0.9,0.3,1.7,1.2,1.7,2.1c0,0.6-0.3,0.9-0.8,1.1v0.1l-0.2,0.1l-1.1,2.9
			l0,0.1l0,0.1c-0.2,0.3-0.4,0.8-0.7,1.2h0c-0.5,0.9-1.1,2-1.7,3c-0.5,0.8-1,1.5-1.6,2.2c-0.5,0.6-1.2,1.2-1.9,1.5l0,0l0,0
			c-1.7,0.6-3.2,0-4.5-0.8c-0.5-0.3-0.9-0.6-1.4-0.9c-0.1-0.1-0.2-0.2-0.3-0.2c-0.5-0.4-0.9-0.6-1.3-0.8l-0.1,0l-0.1,0
			c-0.7-0.4-1.4-0.5-2.6-0.7l0,0c-1-0.1-2.4-0.3-3.9-1.2l-0.1-0.1l-0.1-0.1c-1.3-0.9-2.5-2.3-3.5-3.5c-0.2-0.3-0.5-0.5-0.7-0.8l0,0
			c-0.8-1-1.6-1.9-2.3-2.6c-1.6-1.6-3.2-2.2-5.3-2.1l0,0l0,0c-1.8-0.1-3.7,0.5-5.7,1.4l-0.1,0l0,0l-0.1,0c-1,0.5-2.2,1-3.5,1.1
			c-1.4,0.1-3.1-0.3-4.6-2c-0.7-0.8-1.3-1.7-1.8-2.7c-0.5-0.9-1-1.9-1.5-2.8l0,0l-0.1-0.2c-0.5-1-1-2-1.5-2.8
			c-0.4-0.8-0.8-1.3-1.1-1.6c-0.5-0.4-1.1-0.5-2-0.2c-0.5,0.1-0.9,0.4-1.4,0.6c-0.1,0.1-0.3,0.1-0.4,0.2l0,0
			c-0.4,0.2-0.8,0.4-1.2,0.6c-1.2,0.5-2.3,0.8-3.4,0.9c-0.4,0.1-0.8,0.1-1.1,0.1l0,0c-0.7,0.1-1.3,0.1-1.9,0.3l-0.1,0l-0.1,0
			c-2,0-3.7,0.6-4.8,0.9c-0.1,0-0.2,0.1-0.3,0.1l-1.2,0.4c-0.7,0.2-1.5-0.2-2-1.1c-0.4-0.8-0.2-1.7,0.4-1.9l1.2-0.4l0,0l0,0
			c0.1,0,0.2-0.1,0.3-0.1l0,0l0,0c1-0.3,3-0.9,5.2-0.9c0.7-0.1,1.4-0.2,2.1-0.3c0.3,0,0.7-0.1,1-0.1c1-0.1,1.9-0.3,2.8-0.7
			c0.3-0.2,0.7-0.3,1-0.5l0,0c0.2-0.1,0.3-0.2,0.5-0.3c0.5-0.3,1.1-0.6,1.8-0.8c1.3-0.4,2.9-0.5,4.7,1l0.1,0.1l0.1,0.1
			c0.7,0.7,1.4,1.7,1.9,2.6c0.6,0.9,1.1,2,1.6,3l0.1,0.2h0c0.5,0.9,0.9,1.8,1.4,2.6c0.5,0.9,0.9,1.5,1.3,1.9c0.5,0.6,1,0.8,1.8,0.7
			c0.9-0.1,1.8-0.5,2.9-1l0,0l0.1,0v0c2.1-1,4.3-1.8,6.7-1.6c2.6,0,5.2,0.7,7.7,3.2c0.9,0.9,1.8,2,2.7,3l0,0l0,0
			c0.2,0.2,0.4,0.5,0.6,0.7c1,1.2,1.9,2.1,2.6,2.7c0.8,0.4,1.7,0.6,2.7,0.7l0.1,0c1,0.1,2.2,0.3,3.5,1c0.6,0.3,1.3,0.7,1.8,1.1
			c0.1,0.1,0.3,0.2,0.4,0.3h0l0,0c0.4,0.3,0.7,0.5,1.1,0.7c0.8,0.5,1.5,0.7,2.2,0.5c0.3-0.2,0.7-0.5,1.2-1c0.5-0.5,0.9-1.2,1.4-1.9
			c0.6-1,1.1-1.9,1.6-2.8c0.3-0.5,0.5-0.9,0.7-1.3l1.1-2.9c0.1-0.3,0.3-0.6,0.6-0.8L238.1,297.3z"/>
	</g>
	<g>
		<path class="st93" d="M213.5,316.2c1.1,0,2.2,0.4,3.5,1.3c1.1,0.8,2.2,1.8,3.5,2.9l0,0c0.3,0.2,0.5,0.5,0.8,0.7
			c1.2,1.1,1.9,2,2.3,2.9c0.5,0.9,0.7,1.8,1,2.9c0,0.2,0.1,0.3,0.1,0.5c0.5,2,1.1,4.6,3.5,7.4v4.2c0,2.3,2.7,4.2,4.1,3l0.2-0.2h-0.3
			c0.1-0.1,0.1-0.3,0.1-0.4c0-0.6-0.4-1.2-0.9-1.7c-0.1-0.1-0.5-0.3-0.5-0.3v-1.6h0.2v-2.3c0-0.8-0.4-1.7-0.9-2.3
			c-1.8-2-2.2-3.7-2.6-5.8c0-0.1-0.1-0.3-0.1-0.4c-0.3-1.1-0.6-2.5-1.3-3.8c-0.7-1.4-1.8-2.8-3.4-4.2c-0.2-0.2-0.5-0.4-0.7-0.6
			c-1.2-1.1-2.6-2.3-3.9-3.2c-1.6-1.1-3.5-2-5.3-2c-1.8-0.1-3.5,0.7-4.9,1.4l-0.2,0.1c-0.7,0.3-1.3,0.6-1.9,0.8
			c-0.6,0.2-1.1,0.3-1.6,0.4c-1.1-0.2-2.2-0.9-3.7-1.9l-0.1-0.1c-1.4-0.9-3.2-2.1-5-2.3l-0.1,0l-0.1,0c-0.9,0-1.8,0.1-2.6,0.4
			c-0.5,0.2-1.1,0.4-1.6,0.6l0,0c-0.2,0.1-0.4,0.2-0.6,0.2c-1.5,0.5-2.6,0.8-3.5,0.4c-1-0.5-2.1-1.8-3.5-3.7c-0.2-0.3-0.5-0.7-0.8-1
			l0,0c-1.1-1.5-2.4-3.3-3.8-4.6c-3.4-3.3-6.8-3.8-8.4-4l0,0l-1.5-0.2c-0.8-0.1-1.3,0.5-1.2,1.4c0.1,0.9,0.9,1.6,1.7,1.8l1.5,0.2
			c1.5,0.2,4,0.6,6.4,3c1,1,2,2.3,3.2,3.9l0,0c0.3,0.4,0.6,0.8,0.9,1.2c1.4,1.8,3.1,3.9,5,4.9l0.1,0l0.1,0c2,0.9,3.9,0.3,5.4-0.3
			c0.3-0.1,0.5-0.2,0.7-0.3h0c0.5-0.2,1-0.4,1.4-0.5c0.7-0.2,1.3-0.3,1.8-0.3c1.1,0.2,2.2,0.9,3.7,1.9l0.1,0.1
			c1.4,0.9,3.2,2.1,5,2.3l0.1,0l0.1,0c0.9,0,1.7-0.2,2.4-0.5c0.7-0.3,1.4-0.6,2-0.9l0.2-0.1c1.5-0.7,2.8-1.3,3.9-1.2H213.5
			L213.5,316.2z"/>
	</g>
	<polygon class="st39" points="399.2,412.4 479.6,340.5 479.3,538.2 398.9,610.1 	"/>
	
		<linearGradient id="SVGID_46_" gradientUnits="userSpaceOnUse" x1="-612.356" y1="381.241" x2="-612.356" y2="214.6819" gradientTransform="matrix(0.9508 0.3097 1.060730e-03 -1 904.9876 959.0491)">
		<stop  offset="0" style="stop-color:#C7DBFF"/>
		<stop  offset="1" style="stop-color:#C4D9FF"/>
	</linearGradient>
	<polygon class="st94" points="247.1,363.4 399.1,412.9 399,579.5 247,530 	"/>
	
		<linearGradient id="SVGID_47_" gradientUnits="userSpaceOnUse" x1="-612.356" y1="381.241" x2="-612.356" y2="214.6819" gradientTransform="matrix(0.9508 0.3097 1.060730e-03 -1 904.9876 959.0491)">
		<stop  offset="0" style="stop-color:#FFFFFF"/>
		<stop  offset="1" style="stop-color:#FFFFFF;stop-opacity:0"/>
	</linearGradient>
	<polygon class="st95" points="247.1,363.4 399.1,412.9 399,579.5 247,530 	"/>
	<polygon class="st96" points="247.1,363.3 327.5,291.5 478.9,340.9 398.6,412.7 	"/>
	
		<linearGradient id="SVGID_48_" gradientUnits="userSpaceOnUse" x1="-467.0663" y1="736.9811" x2="-557.8483" y2="830.381" gradientTransform="matrix(0.7457 -0.6663 -0.9508 -0.3098 1474.6963 256.6065)">
		<stop  offset="0" style="stop-color:#FFFFFF;stop-opacity:0"/>
		<stop  offset="1" style="stop-color:#FFFFFF"/>
	</linearGradient>
	<polygon class="st97" points="247.1,363.3 327.5,291.5 478.9,340.9 398.6,412.7 	"/>
	<g class="st70">
		<defs>
			<filter id="Adobe_OpacityMaskFilter_5_" filterUnits="userSpaceOnUse" x="290.9" y="457.5" width="131.4" height="122.5">
				<feColorMatrix  type="matrix" values="1 0 0 0 0  0 1 0 0 0  0 0 1 0 0  0 0 0 1 0"/>
			</filter>
		</defs>
		<mask maskUnits="userSpaceOnUse" x="290.9" y="457.5" width="131.4" height="122.5" id="mask5_1_">
			<polygon class="st98" points="272,404.5 399.6,446.1 399.5,575.5 271.8,533.9 			"/>
		</mask>
		<g class="st99">
			<g class="st51">
				<g>
					<path class="st73" d="M381.4,479.9c-12.7,0-24.3,2.7-34.3,7.7c-10,5.1-18.1,12.5-23.9,21.8l92.5,70.6L381.4,479.9z"/>
				</g>
				<g>
					<path class="st74" d="M395,480.8c-18.2-2.4-35,0.1-48.7,7.2c-13.7,7.2-23.6,18.8-28.9,33.5l89.7,53.3c0.5-1.3,1.3-2.3,2.5-2.9
						c1.2-0.6,2.7-0.8,4.3-0.6L395,480.8z"/>
				</g>
				<g>
					<path class="st74" d="M422.3,466.8c-32.2-12-63.9-12.4-88.4-0.9c-24.5,11.5-39.9,33.8-43,62.4l82.1,34
						c1.1-9.8,6.3-17.4,14.7-21.3c8.4-3.9,19.2-3.8,30.2,0.3L422.3,466.8z"/>
				</g>
				<g>
					<path class="st74" d="M422.3,466.8c-32.2-12-63.9-12.4-88.4-0.9c-24.5,11.5-39.9,33.8-43,62.4l65.2,27
						c1.5-13.7,8.8-24.3,20.5-29.8c11.7-5.5,26.8-5.3,42.2,0.4L422.3,466.8z"/>
				</g>
			</g>
		</g>
	</g>
	<polygon class="st100" points="361.5,224.6 390.4,198.5 452.9,260.1 424,286.2 	"/>
	<path class="st101" d="M361.5,224.6l0.5,7l60.5,59.6l1.7-4.9L361.5,224.6z"/>
	<path class="st102" d="M452.4,259.3l-0.9,5.7l-29.1,26.3l0.9-5.7L452.4,259.3z"/>
	<g class="st42">
		<polygon class="st64" points="256.7,361.8 331.3,295.2 473.1,341.4 398.5,408.1 		"/>
	</g>
	<g class="st79">
		<path class="st102" d="M456.4,265.9l-4.9-1l-29.1,26.3l4.9,1L456.4,265.9z"/>
		<g>
			<path class="st103" d="M462,262.8l-6.2-1.2l-36.7,33.1l6.2,1.2L462,262.8z"/>
		</g>
	</g>
	<g class="st104">
		<g>
			
				<radialGradient id="SVGID_49_" cx="-282.3615" cy="628.3665" r="1" gradientTransform="matrix(16.1409 0.7738 0.2931 -6.1438 4781.46 4325.9937)" gradientUnits="userSpaceOnUse">
				<stop  offset="0" style="stop-color:#A6BAEB"/>
				<stop  offset="1" style="stop-color:#BDD0F0"/>
			</radialGradient>
			<path class="st105" d="M403.5,236.8c6.8,1,12.1,3.5,11.8,5.7s-6.1,3.2-12.9,2.2c-6.8-1-12.1-3.5-11.8-5.7
				S396.6,235.8,403.5,236.8z"/>
			
				<radialGradient id="SVGID_50_" cx="-295.1497" cy="610.4651" r="1" gradientTransform="matrix(10.6831 0.5619 0.1916 -3.6599 3442.7478 2646.3459)" gradientUnits="userSpaceOnUse">
				<stop  offset="0" style="stop-color:#73A8F5;stop-opacity:0.21"/>
				<stop  offset="1" style="stop-color:#3379DF;stop-opacity:0"/>
			</radialGradient>
			<path class="st106" d="M403.5,236.8c6.8,1,12.1,3.5,11.8,5.7s-6.1,3.2-12.9,2.2c-6.8-1-12.1-3.5-11.8-5.7
				S396.6,235.8,403.5,236.8z"/>
		</g>
		<g>
			
				<ellipse transform="matrix(0.1399 -0.9902 0.9902 0.1399 111.2336 610.661)" class="st57" cx="407.1" cy="241.3" rx="6.3" ry="14.1"/>
		</g>
	</g>
	
		<radialGradient id="SVGID_51_" cx="-274.3155" cy="627.3375" r="1" gradientTransform="matrix(10.7274 8.6339 8.6323 -10.7254 -2081.3127 9326.8096)" gradientUnits="userSpaceOnUse">
		<stop  offset="0" style="stop-color:#4399FC"/>
		<stop  offset="0.5661" style="stop-color:#387BDE"/>
		<stop  offset="0.6618" style="stop-color:#3478DD"/>
		<stop  offset="0.8229" style="stop-color:#3D81E6"/>
		<stop  offset="0.9948" style="stop-color:#438DFC"/>
	</radialGradient>
	<ellipse class="st107" cx="395.5" cy="233.2" rx="7.7" ry="7.7"/>
	
		<radialGradient id="SVGID_52_" cx="-274.3155" cy="627.3375" r="1" gradientTransform="matrix(10.7274 8.6339 8.6323 -10.7254 -1991.5227 9574.0068)" gradientUnits="userSpaceOnUse">
		<stop  offset="0" style="stop-color:#4399FC"/>
		<stop  offset="0.5661" style="stop-color:#387BDE"/>
		<stop  offset="0.6618" style="stop-color:#3478DD"/>
		<stop  offset="0.8229" style="stop-color:#3D81E6"/>
		<stop  offset="0.9948" style="stop-color:#438DFC"/>
	</radialGradient>
	<ellipse class="st108" cx="485.3" cy="480.4" rx="7.7" ry="7.7"/>
	<g class="st45">
		<path class="st109" d="M228.3,224.1c-5.3-1.7-6.2-6.1-2.1-9.8l49.8-44.5c4.1-3.7,11.7-5.3,17-3.6l59.1,19.3
			c5.3,1.7,6.2,6.1,2.1,9.8l-49.8,44.5c-4.1,3.7-11.7,5.3-17,3.6L228.3,224.1z"/>
	</g>
	<g>
		<path class="st110" d="M248.9,172.9c-1.5-3.2,0.3-5.9,3.3-5l40.2,11.5c1.3,0.4,2.6,1.6,3.3,3l13.5,28.4c0.8,1.7,6.2,6.7,5.1,7.7
			L299,232.1c-1.8,1.6-4.4,2-7.2,1.1l-51.4-16.7c-0.5-0.2-0.9-0.7-0.9-1.1c0-0.2,0-0.4,0-0.5c0-0.1,0.1-0.1,0.1-0.2
			c0-0.1,0.1-0.1,0.2-0.1l22.3-12.7c0.2-0.1,0.5-0.3,0.7-0.5c0.8-1,0.9-2.6,0.1-4.2L248.9,172.9z"/>
	</g>
	
		<linearGradient id="SVGID_53_" gradientUnits="userSpaceOnUse" x1="284.2885" y1="335.9897" x2="269.8925" y2="290.9337" gradientTransform="matrix(1 0 0 -1 0 516)">
		<stop  offset="0" style="stop-color:#94B0E3"/>
		<stop  offset="0.5173" style="stop-color:#A0BAE8"/>
		<stop  offset="0.6117" style="stop-color:#B5CAF1"/>
	</linearGradient>
	<path class="st111" d="M245.7,171.6c-1.5-3.2,0.3-5.9,3.3-5l49,15.9c1.3,0.4,2.6,1.6,3.3,3l13.5,28.4c0.8,1.7,0.7,3.6-0.4,4.5
		L299,232.1c-1.8,1.6-4.4,2-7.2,1.1l-51.4-16.7c-0.5-0.2-0.9-0.7-0.9-1.1c0-0.2,0-0.4,0-0.5c0-0.1,0.1-0.2,0.2-0.2l16.8-14.9
		c1.1-1,1.2-2.8,0.4-4.5L245.7,171.6z"/>
	
		<linearGradient id="SVGID_54_" gradientUnits="userSpaceOnUse" x1="283.3399" y1="336.0791" x2="268.9439" y2="291.0231" gradientTransform="matrix(1 0 0 -1 0 516)">
		<stop  offset="0" style="stop-color:#D2E1FF"/>
		<stop  offset="0.5173" style="stop-color:#CADBFD"/>
		<stop  offset="0.6117" style="stop-color:#E4EEFD"/>
	</linearGradient>
	<path class="st112" d="M244.8,171.3c-1.5-3.2,0.3-5.9,3.3-5l49,15.9c1.3,0.4,2.6,1.6,3.3,3l13.5,28.4c0.8,1.7,0.7,3.6-0.4,4.5
		l-14.5,13c-1.8,1.6-4.4,2-7.2,1.1l-51.4-16.7c-0.8-0.3-1.2-1.4-0.7-1.9l16-14.3c1.1-1,1.2-2.8,0.4-4.5L244.8,171.3z"/>
	
		<linearGradient id="SVGID_55_" gradientUnits="userSpaceOnUse" x1="284.0264" y1="337.9984" x2="276.4244" y2="314.5754" gradientTransform="matrix(1 0 0 -1 0 516)">
		<stop  offset="0" style="stop-color:#3189F0"/>
		<stop  offset="0.9896" style="stop-color:#4590E9;stop-opacity:0"/>
	</linearGradient>
	<path class="st113" d="M244.8,171.3c-1.5-3.2,0.3-5.9,3.3-5l49,15.9c1.3,0.4,2.6,1.6,3.3,3l13.5,28.4c0.8,1.7,0.7,3.6-0.4,4.5
		l-14.5,13c-1.8,1.6-4.4,2-7.2,1.1l-51.4-16.7c-0.8-0.3-1.2-1.4-0.7-1.9l16-14.3c1.1-1,1.2-2.8,0.4-4.5L244.8,171.3z"/>
	<path class="st40" d="M207.2,69.3c0-2.2,1.7-3.4,3.8-2.8l131.5,42.8c2.1,0.7,3.8,3,3.8,5.2l-0.1,98l-139.1-45.3L207.2,69.3z"/>
	
		<linearGradient id="SVGID_56_" gradientUnits="userSpaceOnUse" x1="260.4482" y1="373.3868" x2="280.7192" y2="342.7598" gradientTransform="matrix(1 0 0 -1 0 516)">
		<stop  offset="0.5406" style="stop-color:#E5EFFD"/>
		<stop  offset="0.6189" style="stop-color:#B5CAF1"/>
		<stop  offset="1" style="stop-color:#B5CAF1"/>
	</linearGradient>
	<path class="st114" d="M210.9,65.4l-2.2,1.3c0.4-0.2,0.8-0.3,1.3-0.3C210.2,65.9,210.5,65.6,210.9,65.4z"/>
	
		<linearGradient id="SVGID_57_" gradientUnits="userSpaceOnUse" x1="208.5636" y1="449.3268" x2="208.5688" y2="449.3189" gradientTransform="matrix(1 0 0 -1 0 516)">
		<stop  offset="0.5406" style="stop-color:#E5EFFD"/>
		<stop  offset="0.6189" style="stop-color:#B5CAF1"/>
		<stop  offset="1" style="stop-color:#B5CAF1"/>
	</linearGradient>
	<path class="st115" d="M208.5,66.7c0,0,0.1,0,0.1-0.1L208.5,66.7z"/>
	
		<linearGradient id="SVGID_58_" gradientUnits="userSpaceOnUse" x1="298.2402" y1="398.4001" x2="318.5112" y2="367.7731" gradientTransform="matrix(1 0 0 -1 0 516)">
		<stop  offset="0.5406" style="stop-color:#E5EFFD"/>
		<stop  offset="0.6189" style="stop-color:#B5CAF1"/>
		<stop  offset="1" style="stop-color:#B5CAF1"/>
	</linearGradient>
	<path class="st116" d="M211,66.5l131.5,42.8c2.1,0.7,3.8,3,3.8,5.2l-0.1,95.9v2.1l0.3-0.2c1.2-0.7,2-2,2-3.5l0.1-95.7
		c0-2.2-1.7-4.6-3.8-5.2L213.4,65.2c-0.9-0.3-1.8-0.2-2.5,0.2c0,0,0,0,0,0c0,0,0,0,0,0c-0.4,0.2-0.7,0.6-0.9,1
		C210.3,66.3,210.7,66.4,211,66.5z"/>
	<g>
		<path class="st117" d="M211.1,75.3c0-2.2,1.7-3.4,3.8-2.8l123.6,40.2c2.1,0.7,3.8,3,3.8,5.2l-0.1,86.6c0,0.6-0.4,0.9-1,0.7
			L212,163.2c-0.5-0.2-0.9-0.8-0.9-1.3L211.1,75.3z"/>
	</g>
	<path class="st118" d="M211.1,73.6c0-1.3,1-2,2.2-1.6l-0.1,91.6l-2.2-0.7L211.1,73.6z"/>
	<g>
		<path class="st119" d="M240.9,133.3l85.4,27.8c2.1,0.7,3.8,3,3.8,5.2l0,21.9c0,2.2-1.7,3.4-3.8,2.8l-85.4-27.8
			c-2.1-0.7-3.8-3-3.8-5.2l0-21.9C237.1,133.9,238.8,132.7,240.9,133.3z"/>
	</g>
	<g>
		
			<linearGradient id="SVGID_59_" gradientUnits="userSpaceOnUse" x1="230.3133" y1="367.5782" x2="337.1613" y2="287.4772" gradientTransform="matrix(1 0 0 -1 0 516)">
			<stop  offset="0" style="stop-color:#F1F6FF;stop-opacity:0.6"/>
			<stop  offset="1" style="stop-color:#F1F6FF;stop-opacity:0.48"/>
		</linearGradient>
		<path class="st120" d="M342.2,203.3l-129.3-42.1l-1.9,1.7l131.2,42.7L342.2,203.3z"/>
	</g>
	<g>
		<path class="st119" d="M241,98.5l20.4,6.6c2.1,0.7,3.8,3,3.8,5.2l0,21.9c0,2.2-1.7,3.4-3.8,2.8l-20.4-6.6c-2.1-0.7-3.8-3-3.8-5.2
			l0-21.9C237.1,99.1,238.9,97.8,241,98.5z"/>
	</g>
	<g>
		<path class="st119" d="M274,109.5l20.4,6.6c2.1,0.7,3.8,3,3.8,5.2l0,21.9c0,2.2-1.7,3.4-3.8,2.8l-20.4-6.6c-2.1-0.7-3.8-3-3.8-5.2
			l0-21.9C270.1,110.1,271.9,108.8,274,109.5z"/>
	</g>
	<g>
		<path class="st119" d="M240.5,85.1l86.3,28.1c1.8,0.6,3.3,2.7,3.3,4.6v0c0,1.9-1.5,3-3.3,2.4l-86.3-28.1c-1.8-0.6-3.3-2.7-3.3-4.6
			v0C237.2,85.6,238.7,84.5,240.5,85.1z"/>
	</g>
	<g>
		<path class="st121" d="M245.5,117.1L245.5,117.1c0.8,0.3,1.4,1.1,1.4,2l0,2c0,0.8-0.6,1.3-1.4,1l0,0c-0.8-0.3-1.4-1.1-1.4-2l0-2
			C244.1,117.3,244.7,116.9,245.5,117.1z"/>
		<path class="st122" d="M249.2,113.5L249.2,113.5c0.8,0.3,1.4,1.1,1.4,2l0,7c0,0.8-0.6,1.3-1.4,1l0,0c-0.8-0.3-1.4-1.1-1.4-2l0-7
			C247.8,113.7,248.4,113.2,249.2,113.5z"/>
		<path class="st123" d="M253.3,111.3L253.3,111.3c0.8,0.3,1.4,1.1,1.4,2l0,11c0,0.8-0.6,1.3-1.4,1l0,0c-0.8-0.3-1.4-1.1-1.4-2l0-11
			C251.9,111.5,252.5,111,253.3,111.3z"/>
	</g>
	<g>
		<path class="st124" d="M301.7,123.2l18.5,6c2.6,0.9,4.8,3.8,4.7,6.5l0,19.9c0,2.8-2.1,4.3-4.8,3.5l-18.5-6
			c-2.6-0.9-4.8-3.8-4.7-6.5l0-19.9C297,123.9,299.1,122.3,301.7,123.2z"/>
		
			<linearGradient id="SVGID_60_" gradientUnits="userSpaceOnUse" x1="-665.4925" y1="380.2242" x2="-690.0071" y2="351.9341" gradientTransform="matrix(0.9508 0.3097 1.060730e-03 -1 954.8246 717.2671)">
			<stop  offset="0" style="stop-color:#FFFFFF;stop-opacity:0.51"/>
			<stop  offset="0.3728" style="stop-color:#FFFFFF"/>
			<stop  offset="0.3884" style="stop-color:#FFFFFF;stop-opacity:0"/>
		</linearGradient>
		<path class="st125" d="M301.7,123.2l18.5,6c2.6,0.9,4.8,3.8,4.7,6.5l0,19.9c0,2.8-2.1,4.3-4.8,3.5l-18.5-6
			c-2.6-0.9-4.8-3.8-4.7-6.5l0-19.9C297,123.9,299.1,122.3,301.7,123.2z"/>
	</g>
	<g>
		<path class="st126" d="M283.6,134.5c1.4,0.4,2.7,0.5,3.8,0.3c1.2-0.3,2.1-0.9,2.8-1.8c0.6-0.9,1-2,0.9-3.3
			c-0.1-1.3-0.5-2.6-1.2-3.9l-3.4,1c0.3,0.6,0.5,1.2,0.6,1.7c0,0.6-0.1,1.1-0.4,1.5c-0.3,0.4-0.7,0.7-1.2,0.8
			c-0.5,0.1-1.1,0.1-1.7-0.1L283.6,134.5z"/>
	</g>
	<g>
		<path class="st127" d="M279.7,120.5c-1.3,0.3-2.3,1-2.9,2.1c-0.6,1-0.8,2.4-0.6,3.8c0.2,1.4,0.9,2.9,1.9,4.2
			c1,1.3,2.3,2.5,3.8,3.2l0.9-3.4c-0.6-0.4-1.2-0.9-1.7-1.5c-0.5-0.6-0.8-1.3-0.9-1.9c-0.1-0.6,0-1.2,0.3-1.7
			c0.3-0.5,0.7-0.8,1.3-0.9L279.7,120.5z"/>
	</g>
	<path class="st126" d="M288.9,124.5c-1-1.2-2.1-2.2-3.4-2.9c-1.3-0.7-2.7-1.2-4-1.2l1.2,4c0.6,0,1.2,0.2,1.8,0.6
		c0.6,0.3,1.1,0.8,1.5,1.3L288.9,124.5z"/>
	<g>
		<path class="st123" d="M288.9,124.5c-1-1.2-2.1-2.2-3.4-2.9c-1.3-0.7-2.7-1.2-4-1.2l1.2,4c0.6,0,1.2,0.2,1.8,0.6
			c0.6,0.3,1.1,0.8,1.5,1.3L288.9,124.5z"/>
	</g>
	<g>
		<path class="st128" d="M210,76.2c0-1.7,1.3-2.6,2.9-2.1l12.3,4c1.1,0.3,1.9,1.5,1.9,2.6l-0.1,81.4c0,0.6-0.4,0.9-1,0.7l-15.2-4.9
			c-0.5-0.2-1-0.8-1-1.3L210,76.2z"/>
	</g>
	<g>
		
			<linearGradient id="SVGID_61_" gradientUnits="userSpaceOnUse" x1="-687.7342" y1="381.241" x2="-687.7342" y2="378.4252" gradientTransform="matrix(0.9508 0.3097 1.060730e-03 -1 961.7966 727.2671)">
			<stop  offset="0" style="stop-color:#FFFFFF;stop-opacity:0.38"/>
			<stop  offset="1" style="stop-color:#FFFFFF;stop-opacity:0.81"/>
		</linearGradient>
		<path class="st129" d="M305.3,132.1l6,1.9c0.7,0.2,1.3,1.1,1.3,1.8l0,0c0,0.8-0.6,1.2-1.3,1l-6-1.9c-0.7-0.2-1.3-1.1-1.3-1.8v0
			C304,132.2,304.6,131.8,305.3,132.1z"/>
		
			<linearGradient id="SVGID_62_" gradientUnits="userSpaceOnUse" x1="-685.8088" y1="381.241" x2="-685.8088" y2="379.5926" gradientTransform="matrix(0.9508 0.3097 1.060730e-03 -1 961.7946 731.8341)">
			<stop  offset="0" style="stop-color:#FFFFFF;stop-opacity:0.38"/>
			<stop  offset="1" style="stop-color:#FFFFFF;stop-opacity:0.81"/>
		</linearGradient>
		<path class="st130" d="M304.7,136.4l10.7,3.5c0.4,0.1,0.8,0.6,0.8,1.1l0,0c0,0.5-0.4,0.7-0.8,0.6l-10.7-3.5
			c-0.4-0.1-0.8-0.6-0.8-1.1l0,0C304,136.6,304.3,136.3,304.7,136.4z"/>
		
			<linearGradient id="SVGID_63_" gradientUnits="userSpaceOnUse" x1="-685.8088" y1="381.241" x2="-685.8088" y2="379.5926" gradientTransform="matrix(0.9508 0.3097 1.060730e-03 -1 961.7946 735.4881)">
			<stop  offset="0" style="stop-color:#FFFFFF;stop-opacity:0.38"/>
			<stop  offset="1" style="stop-color:#FFFFFF;stop-opacity:0.81"/>
		</linearGradient>
		<path class="st131" d="M304.7,140.1l10.7,3.5c0.4,0.1,0.8,0.6,0.8,1.1l0,0c0,0.5-0.4,0.7-0.8,0.6l-10.7-3.5
			c-0.4-0.1-0.8-0.6-0.8-1.1l0,0C304,140.2,304.3,140,304.7,140.1z"/>
		
			<linearGradient id="SVGID_64_" gradientUnits="userSpaceOnUse" x1="-685.8088" y1="381.241" x2="-685.8088" y2="379.5926" gradientTransform="matrix(0.9508 0.3097 1.060730e-03 -1 961.7946 739.1401)">
			<stop  offset="0" style="stop-color:#FFFFFF;stop-opacity:0.38"/>
			<stop  offset="1" style="stop-color:#FFFFFF;stop-opacity:0.81"/>
		</linearGradient>
		<path class="st132" d="M304.7,143.7l10.7,3.5c0.4,0.1,0.8,0.6,0.8,1.1l0,0c0,0.5-0.4,0.7-0.8,0.6l-10.7-3.5
			c-0.4-0.1-0.8-0.6-0.8-1.1l0,0C304,143.9,304.3,143.6,304.7,143.7z"/>
	</g>
	<g>
		<path class="st81" d="M204.7,85.2l12.6,4.1c2.1,0.7,3.8,3,3.8,5.2l0,9.7c0,2.2-1.7,3.4-3.8,2.8l-12.6-4.1c-2.1-0.7-3.8-3-3.8-5.2
			l0-9.7C200.9,85.8,202.6,84.5,204.7,85.2z"/>
		
			<linearGradient id="SVGID_65_" gradientUnits="userSpaceOnUse" x1="-674.8368" y1="381.9548" x2="-688.7408" y2="362.488" gradientTransform="matrix(0.9508 0.3097 1.060730e-03 -1 858.7786 679.6404)">
			<stop  offset="0" style="stop-color:#FFFFFF;stop-opacity:0.51"/>
			<stop  offset="0.3728" style="stop-color:#FFFFFF"/>
			<stop  offset="0.3884" style="stop-color:#FFFFFF;stop-opacity:0"/>
		</linearGradient>
		<path class="st133" d="M204.7,85.2l12.6,4.1c2.1,0.7,3.8,3,3.8,5.2l0,9.7c0,2.2-1.7,3.4-3.8,2.8l-12.6-4.1c-2.1-0.7-3.8-3-3.8-5.2
			l0-9.7C200.9,85.8,202.6,84.5,204.7,85.2z"/>
	</g>
	<g class="st42">
		
			<linearGradient id="SVGID_66_" gradientUnits="userSpaceOnUse" x1="398.6502" y1="66.6653" x2="441.7802" y2="47.0683" gradientTransform="matrix(1 0 0 -1 0 516)">
			<stop  offset="0" style="stop-color:#486EB5"/>
			<stop  offset="1" style="stop-color:#486EB5;stop-opacity:0"/>
		</linearGradient>
		<path class="st134" d="M452.8,366.4v77.9V515l-51.2,43.2v-73.2v-73.2L452.8,366.4z"/>
		<g>
			<path class="st44" d="M463.3,356v186.2l-63.1,53.6V413.1L463.3,356z"/>
		</g>
	</g>
	<polygon class="st135" points="83.1,443.9 114,416.2 113.8,614 82.8,641.7 	"/>
	<polygon class="st136" points="31.2,427.1 83,444 82.8,695.9 31,679 	"/>
	<polygon class="st10" points="31.2,427 62.3,399.2 114.2,416.1 83,443.9 	"/>
	<polygon class="st137" points="31.2,427 62.3,399.2 114.2,416.1 83,443.9 	"/>
	
		<ellipse transform="matrix(0.9974 -7.262588e-02 7.262588e-02 0.9974 -24.893 9.6336)" class="st135" cx="120" cy="347.1" rx="12.7" ry="7.1"/>
	<path class="st15" d="M121.1,346.9v-33.1"/>
	<path class="st135" d="M139,323.1l-17.5-9.5V328L139,323.1z"/>
	<g>
		
			<ellipse transform="matrix(0.9974 -7.263044e-02 7.263044e-02 0.9974 -24.6598 24.0319)" class="st138" cx="318.1" cy="351.1" rx="25.4" ry="14.3"/>
	</g>
	<path class="st139" d="M332.2,330.5c-2.8-0.9-5.9-1.5-9.1-1.7c-3.3-0.2-6.6,0-9.9,0.5c-3.3,0.5-6.4,1.4-9.1,2.6
		c-2.8,1.2-5.1,2.6-7,4.3l21.1,6.9L332.2,330.5z"/>
	<path class="st140" d="M332.2,330.5l-6.9,6.2c2.5,0.3,4.8,0.8,6.9,1.5V330.5z"/>
	<path class="st141" d="M325.3,336.7c2.5,0.3,4.8,0.8,6.9,1.5l-14.1,12.6l0,0l-21.1-6.9l0,0c1.8-1.7,4.2-3.1,7-4.3
		c0.5-0.2,1-0.4,1.5-0.6l12.6,4.1L325.3,336.7z M332.2,330.5L332.2,330.5L332.2,330.5L332.2,330.5z"/>
	<path class="st142" d="M332.2,335.2c4.2,1.4,7.4,3.4,9.4,5.9c1.9,2.5,2.4,5.4,1.5,8.2s-3.4,5.5-6.9,7.7c-3.5,2.2-8.1,3.8-13,4.6
		l-5-13.8L332.2,335.2z"/>
	<path class="st143" d="M343.3,348.1c0.1,0.4,0.1,0.8,0.1,1.3l0-2.5C343.5,347.2,343.4,347.6,343.3,348.1z"/>
	
		<linearGradient id="SVGID_67_" gradientUnits="userSpaceOnUse" x1="332.0817" y1="180.7083" x2="346.3897" y2="164.6963" gradientTransform="matrix(1 0 0 -1 0 516)">
		<stop  offset="0" style="stop-color:#FFFFFF"/>
		<stop  offset="1" style="stop-color:#FFFFFF;stop-opacity:0"/>
	</linearGradient>
	<path class="st144" d="M343.3,348.1c0.1,0.4,0.1,0.8,0.1,1.3l0-2.5C343.5,347.2,343.4,347.6,343.3,348.1z"/>
	<path class="st145" d="M343.5,346.8v-0.6C343.5,346.4,343.5,346.6,343.5,346.8z M318.1,350.8l0.8-0.7l4.1,11.4
		c4.9-0.8,9.4-2.4,13-4.6c3.5-2.2,6-4.8,6.9-7.7c0.1-0.4,0.2-0.8,0.3-1.3c0.1,0.4,0.1,0.8,0.1,1.3c0,1-0.1,2-0.5,3.1
		c-1,2.8-3.4,5.5-6.9,7.7c-3.5,2.2-8.1,3.8-13,4.6L318.1,350.8L318.1,350.8z"/>
	
		<linearGradient id="SVGID_68_" gradientUnits="userSpaceOnUse" x1="322.7523" y1="172.3717" x2="337.0603" y2="156.3598" gradientTransform="matrix(1 0 0 -1 0 516)">
		<stop  offset="0" style="stop-color:#FFFFFF"/>
		<stop  offset="1" style="stop-color:#FFFFFF;stop-opacity:0"/>
	</linearGradient>
	<path class="st146" d="M343.5,346.8v-0.6C343.5,346.4,343.5,346.6,343.5,346.8z M318.1,350.8l0.8-0.7l4.1,11.4
		c4.9-0.8,9.4-2.4,13-4.6c3.5-2.2,6-4.8,6.9-7.7c0.1-0.4,0.2-0.8,0.3-1.3c0.1,0.4,0.1,0.8,0.1,1.3c0,1-0.1,2-0.5,3.1
		c-1,2.8-3.4,5.5-6.9,7.7c-3.5,2.2-8.1,3.8-13,4.6L318.1,350.8L318.1,350.8z"/>
	<path class="st147" d="M297,336.2c-2.8,2.5-4.3,5.3-4.3,8.2c0,2.8,1.5,5.5,4.3,7.7c2.8,2.2,6.8,3.8,11.4,4.7
		c4.6,0.8,9.7,0.9,14.7,0.1l-5-13.8L297,336.2z"/>
	<path class="st128" d="M323.1,356.9c-0.9,0.1-1.8,0.3-2.7,0.3l2.7,7.4L323.1,356.9z"/>
	
		<linearGradient id="SVGID_69_" gradientUnits="userSpaceOnUse" x1="294.0033" y1="161.0712" x2="318.1814" y2="156.2361" gradientTransform="matrix(1 0 0 -1 0 516)">
		<stop  offset="0" style="stop-color:#6D7D8D"/>
		<stop  offset="1" style="stop-color:#778797;stop-opacity:0"/>
	</linearGradient>
	<path class="st148" d="M323.1,356.9c-0.9,0.1-1.8,0.3-2.7,0.3l2.7,7.4L323.1,356.9z"/>
	<path class="st128" d="M293.7,348.2c-0.6-1.2-0.9-2.5-0.9-3.8l0,7.7C292.7,350.8,293.1,349.5,293.7,348.2z"/>
	
		<linearGradient id="SVGID_70_" gradientUnits="userSpaceOnUse" x1="295.2394" y1="167.2525" x2="319.4175" y2="162.4175" gradientTransform="matrix(1 0 0 -1 0 516)">
		<stop  offset="0" style="stop-color:#6D7D8D"/>
		<stop  offset="1" style="stop-color:#778797;stop-opacity:0"/>
	</linearGradient>
	<path class="st149" d="M293.7,348.2c-0.6-1.2-0.9-2.5-0.9-3.8l0,7.7C292.7,350.8,293.1,349.5,293.7,348.2z"/>
	<path class="st150" d="M293.7,348.2c-0.6,1.3-0.9,2.6-0.9,3.9v0c0,2.8,1.5,5.5,4.3,7.7c2.8,2.2,6.8,3.8,11.4,4.7
		c4.6,0.8,9.7,0.9,14.7,0.1l-2.7-7.4c-4.1,0.4-8.2,0.3-12-0.4c-4.6-0.8-8.6-2.5-11.4-4.7C295.5,350.9,294.4,349.6,293.7,348.2z"/>
	
		<linearGradient id="SVGID_71_" gradientUnits="userSpaceOnUse" x1="293.9988" y1="161.0487" x2="318.1769" y2="156.2137" gradientTransform="matrix(1 0 0 -1 0 516)">
		<stop  offset="0" style="stop-color:#6D7D8D"/>
		<stop  offset="1" style="stop-color:#778797;stop-opacity:0"/>
	</linearGradient>
	<path class="st151" d="M293.7,348.2c-0.6,1.3-0.9,2.6-0.9,3.9v0c0,2.8,1.5,5.5,4.3,7.7c2.8,2.2,6.8,3.8,11.4,4.7
		c4.6,0.8,9.7,0.9,14.7,0.1l-2.7-7.4c-4.1,0.4-8.2,0.3-12-0.4c-4.6-0.8-8.6-2.5-11.4-4.7C295.5,350.9,294.4,349.6,293.7,348.2z"/>
	
		<linearGradient id="SVGID_72_" gradientUnits="userSpaceOnUse" x1="387.2182" y1="175.6771" x2="356.4283" y2="143.7881" gradientTransform="matrix(1 0 0 -1 0 516)">
		<stop  offset="0" style="stop-color:#B32D2C"/>
		<stop  offset="1" style="stop-color:#B83130"/>
	</linearGradient>
	<path class="st152" d="M382.8,330.3l-13.3,42.3l6.7-6.3l13.4-42.1L382.8,330.3z"/>
	<path class="st153" d="M389.7,324.1l-6.9,6.1l-10.1-3.5l6.9-6.2L389.7,324.1z"/>
	<g class="st51">
		<path class="st154" d="M382.8,370.1l-13.9,3l-13.9-3.5l13.6-3.2L382.8,370.1z"/>
	</g>
	<g class="st51">
		<path class="st154" d="M413.3,376.7l-13.9,3l-13.9-3.5l13.6-3.2L413.3,376.7z"/>
	</g>
	
		<linearGradient id="SVGID_73_" gradientUnits="userSpaceOnUse" x1="358.9113" y1="146.9265" x2="382.2112" y2="183.9765" gradientTransform="matrix(1 0 0 -1 0 516)">
		<stop  offset="0" style="stop-color:#D64F4E"/>
		<stop  offset="1" style="stop-color:#C53B3A"/>
	</linearGradient>
	<path class="st155" d="M359.3,369.1l13.3-42.5l10.2,3.6l-13.3,42.5L359.3,369.1z"/>
	<path class="st127" d="M388.4,346.7l12.4,35.6l-9.9-3.6l-12.4-35.6l-5.9-16.5l10,3.5L388.4,346.7z"/>
	
		<linearGradient id="SVGID_74_" gradientUnits="userSpaceOnUse" x1="384.3155" y1="169.9635" x2="423.0056" y2="144.4165" gradientTransform="matrix(1 0 0 -1 0 516)">
		<stop  offset="0" style="stop-color:#B32D2C"/>
		<stop  offset="1" style="stop-color:#B83130"/>
	</linearGradient>
	<path class="st156" d="M400.8,382.5c-7.2-20.4-11.3-31.8-18.1-52.4l6.9-6.1l5.7,16.4l12.3,35.6L400.8,382.5z"/>
	<defs>
		<filter id="Adobe_OpacityMaskFilter_6_" filterUnits="userSpaceOnUse" x="363.4" y="344.7" width="49.1" height="20.7">
			<feColorMatrix  type="matrix" values="1 0 0 0 0  0 1 0 0 0  0 0 1 0 0  0 0 0 1 0"/>
		</filter>
	</defs>
	<mask maskUnits="userSpaceOnUse" x="363.4" y="344.7" width="49.1" height="20.7" id="mask6_1_">
		<path class="st157" d="M400.5,382.4L400.5,382.4L383,330.3l21.7-13l17.5,52.1L400.5,382.4z"/>
	</mask>
	<g class="st158">
		<path class="st92" d="M377.2,354.9l-9.8,4.4l-4,6.2l9.8-3.8l3.2-1.3l0.8,1l3.1,3.6l6.8-4.2l11.8-7.4l2,2.1l0.8,0.8l0.4-1.5
			l0.6-2.3l1.2-4.8l0-0.1l0.1-0.2l0.1-0.3l-0.4,0l-10.8-0.4l2.7,2.9l-8.1,5l-6.9,4.3l-2.1-2.7L377.2,354.9z"/>
		<path class="st153" d="M387.2,354.7l-1.4-1.8l-7.6,3.4l2.1,2.7L387.2,354.7z"/>
		<path class="st153" d="M385.8,352.8l-8.6,2l1.1,1.4L385.8,352.8z"/>
		<path class="st153" d="M412.4,345.1l-11.2-0.4l2.2,2.4l0.4,0L412.4,345.1z"/>
		<path class="st153" d="M401.2,344.7l-8.6,2l10.8,0.4L401.2,344.7z"/>
		<path class="st159" d="M388.9,363l11.9-7.5l-2-2.1l-11.8,7.4L388.9,363z"/>
		<path class="st159" d="M380.3,365l8.6-2l-1.9-2.2L380.3,365z"/>
		<path class="st159" d="M372,363.4l5.2-2l-0.8-1l-3.2,1.3L372,363.4z"/>
		<path class="st159" d="M363.4,365.4l8.6-2l1.1-1.8L363.4,365.4z"/>
		<path class="st159" d="M410.2,354.3l2.2-9.2l-8.6,2l-0.1,0.3l0.1,0.2l-0.2,0.1l-1.2,4.8l4.9-1.2L410.2,354.3z"/>
		<path class="st159" d="M407.5,351.4l-4.9,1.2l-0.6,2.3L407.5,351.4z"/>
		<path class="st159" d="M410.2,354.3l-2.8-2.9l-5.5,3.5l-0.4,1.5L410.2,354.3z"/>
		<path class="st159" d="M403.9,347.6l-0.1-0.2l-0.1,0.2L403.9,347.6z"/>
		<path class="st159" d="M403.7,347.8l0.2-0.1L403.7,347.8L403.7,347.8z"/>
	</g>
	<defs>
		<filter id="Adobe_OpacityMaskFilter_7_" filterUnits="userSpaceOnUse" x="363.4" y="344.7" width="49.1" height="20.7">
			<feColorMatrix  type="matrix" values="1 0 0 0 0  0 1 0 0 0  0 0 1 0 0  0 0 0 1 0"/>
		</filter>
	</defs>
	<mask maskUnits="userSpaceOnUse" x="363.4" y="344.7" width="49.1" height="20.7" id="mask7_1_">
		<path class="st160" d="M368.2,374.8L368.2,374.8l10.9-30.8l12,35.8L368.2,374.8z"/>
	</mask>
	<g class="st161">
		<path class="st92" d="M377.2,354.9l-9.8,4.4l-4,6.2l9.8-3.8l3.2-1.3l0.8,1l3.1,3.6l6.8-4.2l11.8-7.4l2,2.1l0.8,0.8l0.4-1.5
			l0.6-2.3l1.2-4.8l0-0.1l0.1-0.2l0.1-0.3l-0.4,0l-10.9-0.4l2.7,2.9l-8.1,5l-6.9,4.3l-2.1-2.7L377.2,354.9z"/>
		<path class="st153" d="M387.2,354.7l-1.4-1.8l-7.6,3.4l2.1,2.7L387.2,354.7z"/>
		<path class="st153" d="M385.8,352.8l-8.6,2l1.1,1.4L385.8,352.8z"/>
		<path class="st153" d="M412.4,345.1l-11.2-0.4l2.2,2.4l0.4,0L412.4,345.1z"/>
		<path class="st153" d="M401.2,344.7l-8.6,2l10.9,0.4L401.2,344.7z"/>
		<path class="st159" d="M388.9,363l11.9-7.5l-2-2.1l-11.8,7.4L388.9,363z"/>
		<path class="st159" d="M380.3,365l8.6-2l-1.9-2.2L380.3,365z"/>
		<path class="st159" d="M372,363.4l5.2-2l-0.8-1l-3.2,1.3L372,363.4z"/>
		<path class="st159" d="M363.4,365.4l8.6-2l1.1-1.8L363.4,365.4z"/>
		<path class="st159" d="M410.2,354.3l2.2-9.2l-8.6,2l-0.1,0.3l0.2,0.2l-0.2,0.1l-1.2,4.8l4.9-1.2L410.2,354.3z"/>
		<path class="st159" d="M407.4,351.4l-4.9,1.2l-0.6,2.3L407.4,351.4z"/>
		<path class="st159" d="M410.2,354.3l-2.8-2.9l-5.5,3.5l-0.4,1.5L410.2,354.3z"/>
		<path class="st159" d="M403.9,347.6l-0.2-0.2l-0.1,0.2L403.9,347.6z"/>
		<path class="st159" d="M403.7,347.8l0.2-0.1L403.7,347.8L403.7,347.8z"/>
	</g>
	<g class="st42">
		<path class="st92" d="M415.9,347.1l-57.4,24.4l9.8,2.5l40.4-17.2l-0.4,0.5l-17.2,22.1l9.4,2.5l17.2-22.1l0,0l7.9-10.2l0,0l0,0
			L415.9,347.1z"/>
	</g>
	
		<linearGradient id="SVGID_75_" gradientUnits="userSpaceOnUse" x1="48.8222" y1="516" x2="48.8222" y2="2" gradientTransform="matrix(1 0 0 -1 0 516)">
		<stop  offset="0.5781" style="stop-color:#FFFFFF;stop-opacity:0"/>
		<stop  offset="1" style="stop-color:#FFFFFF"/>
	</linearGradient>
	<rect x="-671.2" class="st162" width="1440" height="514"/>
</g>
</svg>
