<svg xmlns="http://www.w3.org/2000/svg" viewBox="0 0 451.15 173.01"><defs><style>.cls-1{fill:#364953;}</style></defs><g id="Layer_2" data-name="Layer 2"><g id="Layer_1-2" data-name="Layer 1"><g id="_7xHW8A" data-name="7xHW8A"><path class="cls-1" d="M238,141.94l48.28-98.32H264.78l-.27-.84L331,0l.61.53c-18.61,39.13-37.21,78.26-56.08,118,1.68.09,2.85.2,4,.2,10,0,20.08-.1,30.11.08,2.92,0,4.4-.87,5.74-3.49,5.32-10.36,13.07-18.11,24.75-21,3.36-.82,6.9-.88,11.23-1.39-4.42,8.94-8.42,17-12.61,25.52h43.62c-.29-4.7-1-9.31-.8-13.87.9-17.82,15.69-31.75,34-32.39,16.93-.59,32.62,12.57,35.08,29.42,3.18,21.87-12.67,40.51-34.77,40.54q-87.25.12-174.51,0C240.49,142.15,239.5,142,238,141.94Zm191.7-34.5A13.51,13.51,0,0,0,416.24,94a13.5,13.5,0,0,0,.1,27A13.43,13.43,0,0,0,429.68,107.44Z"/><path class="cls-1" d="M0,164.44c16.94-.4,28.06-8.33,35.06-22.84,4.8-9.95,10-19.74,15.29-29.43C57.1,99.85,67.57,93.38,81.77,93.3c.55,0,1.09.11,2.13.21-4.17,8.34-8.22,16.41-12.5,25,1.63.1,2.71.21,3.79.21,13.69,0,27.37-.07,41.06.08,2.69,0,4-.86,5.23-3.21,5.36-10.48,13.12-18.36,24.92-21.26,3.34-.82,6.87-.85,11.21-1.34l-12.74,25.66c5.42,0,10.23.09,15-.09.68,0,1.51-1.24,1.94-2.07,2.45-4.77,4.74-9.62,7.2-14.38C175.81,89,188.78,81.55,203,82.8l-17.27,35.86c5.18,0,9.71.13,14.21-.11.87,0,1.92-1.42,2.44-2.41,4.12-7.88,8-15.91,12.2-23.72,7.09-13,18.25-19.2,33.52-19.11-.48,1.22-.77,2.14-1.19,3-10.34,21.07-20.74,42.12-31,63.24-1.14,2.36-2.62,2.64-4.82,2.64q-73.75-.06-147.5-.11c-3.07,0-4.74.85-6,3.67A84.3,84.3,0,0,1,52,156.67,34.8,34.8,0,0,1,1.75,166C1.31,165.63.92,165.24,0,164.44Z"/><path class="cls-1" d="M169.63,33.67a10,10,0,1,1-10.36,10A10,10,0,0,1,169.63,33.67Z"/><path class="cls-1" d="M198,43.78a10,10,0,1,1,20-.06,10,10,0,0,1-10,10A9.85,9.85,0,0,1,198,43.78Z"/><path class="cls-1" d="M337.84,162.89a10,10,0,1,1-10-10A10,10,0,0,1,337.84,162.89Z"/><path class="cls-1" d="M190.83,5.48a10.12,10.12,0,0,1,10,10,10.1,10.1,0,1,1-20.19-.12A10.14,10.14,0,0,1,190.83,5.48Z"/></g></g></g></svg>